<svg width="56" height="33" viewBox="0 0 56 33" fill="none" xmlns="http://www.w3.org/2000/svg">
<path d="M27.8335 0.185791C20.5002 0.185791 15.9168 3.74135 14.0835 10.8525C16.8335 7.2969 20.0418 5.96357 23.7085 6.85246C25.8005 7.35962 27.2958 8.83132 28.9509 10.4605C31.6471 13.1143 34.7677 16.1858 41.5835 16.1858C48.9168 16.1858 53.5002 12.6302 55.3335 5.51912C52.5835 9.07468 49.3752 10.408 45.7085 9.51912C43.6165 9.01196 42.1212 7.54026 40.4661 5.91112C37.7699 3.2573 34.6493 0.185791 27.8335 0.185791ZM14.0835 16.1858C6.75016 16.1858 2.16683 19.7413 0.333496 26.8525C3.0835 23.2969 6.29183 21.9636 9.9585 22.8525C12.0505 23.3596 13.5458 24.8313 15.2009 26.4605C17.8971 29.1143 21.0177 32.1858 27.8335 32.1858C35.1668 32.1858 39.7502 28.6302 41.5835 21.5191C38.8335 25.0747 35.6252 26.408 31.9585 25.5191C29.8665 25.012 28.3712 23.5403 26.7161 21.9111C24.0199 19.2573 20.8993 16.1858 14.0835 16.1858Z" fill="#D9D9D9"/>
</svg>
