<svg width="54" height="23" viewBox="0 0 54 23" fill="none" xmlns="http://www.w3.org/2000/svg">
<path d="M36.1394 0.185791L35.9738 1.00691C35.7176 2.56303 35.8104 3.00824 36.5126 3.58575L37.1906 4.11916L36.4883 7.09702C36.0687 8.87365 35.5542 10.3626 35.2274 10.8519C34.9469 11.274 34.6201 11.8956 34.5494 12.2295C34.4324 12.6285 34.0349 13.0296 33.4276 13.3845C32.891 13.6743 31.8376 14.4514 31.0912 15.0751C30.4949 15.5854 30.0842 15.8983 29.8611 16.0327L29.1324 16.5808C28.8983 16.9378 28.7658 17.2255 28.715 17.4439C28.6642 17.6686 28.6929 17.8177 28.768 17.9269C28.8409 18.0319 28.9667 18.1054 29.139 18.1516C29.3429 18.1971 29.5528 18.2133 29.7617 18.1999C30.2345 18.1692 30.7024 18.0904 31.1574 17.9647C31.312 17.9248 31.4335 17.887 31.5395 17.8534C31.7029 17.6623 32.0805 17.3011 32.7496 16.6732C34.5251 15.0079 35.2031 14.0964 34.503 14.3421C34.2447 14.4303 34.3617 14.2077 34.8056 13.7625C35.7419 12.8952 36.2785 11.5848 37.4004 7.47502C38.2881 4.23046 38.2881 4.18426 38.9418 4.18426C39.2487 4.18426 40.1166 4.23466 40.1166 4.23466V0.185791H38.1247H36.1394ZM44.6172 6.83241C44.4759 6.83241 44.2418 7.03401 44.1027 7.25662C43.8465 7.65563 44.149 7.89923 48.0048 10.1883C50.2948 11.568 52.141 12.744 52.0946 12.8343C52.0482 12.8994 50.1778 14.0565 47.9363 15.3901C43.8686 17.7883 43.8465 17.8114 44.2197 18.3007C44.6879 18.8782 44.2197 19.0777 49.4998 15.9445L53.3335 13.6113V11.8557L49.056 9.34406C46.7438 7.96643 44.7342 6.85551 44.6172 6.83241ZM9.09616 7.07811C8.97912 7.07811 6.96954 8.21214 4.65741 9.56666L0.333496 12.0783V13.8339L4.63312 16.3897C7.01812 17.7883 9.0277 18.9454 9.12045 18.9454C9.2132 18.9454 9.40091 18.7438 9.58862 18.5002C9.86908 18.0781 9.63279 17.8996 5.68429 15.5224C1.9235 13.2774 1.526 12.9666 1.90141 12.723C2.1355 12.5676 3.911 11.5218 5.82783 10.3899C10.1981 7.83413 9.96404 8.01053 9.61291 7.47712C9.47379 7.25662 9.2375 7.05711 9.09837 7.07811H9.09616ZM28.2733 7.12642C27.6285 7.12222 26.2417 8.05673 22.09 11.2803C21.9111 11.6856 21.8957 11.9649 21.9774 12.1455C22.0304 12.2694 22.1275 12.3555 22.2622 12.4185C22.3947 12.4815 22.567 12.5193 22.7569 12.534C23.1345 12.5655 23.5806 12.5088 23.9406 12.4416L24.1835 12.3891C24.2666 12.2831 24.3758 12.198 24.5015 12.1413C24.7577 12.0069 25.8331 11.0745 26.9086 10.0749C28.8011 8.25204 29.245 7.42882 28.4743 7.16212C28.4111 7.13819 28.3414 7.12607 28.2733 7.12642ZM33.1228 8.39274C32.5553 8.40744 31.5328 9.03325 29.7816 10.3626C28.9027 11.0409 28.3462 11.4063 28.0481 11.4819L26.8909 12.3513C26.4559 13.1073 26.3918 13.5756 26.5067 13.8339C26.5354 13.8977 26.5771 13.9553 26.6294 14.0036C26.6817 14.0519 26.7436 14.0899 26.8114 14.1153C26.9801 14.1787 27.16 14.2108 27.3414 14.2098C27.7749 14.2055 28.2057 14.1454 28.6222 14.0313C28.8393 13.9759 29.0537 13.9115 29.2649 13.8381L29.3289 13.8129L29.446 13.7541C29.6668 13.4832 30.1747 12.9729 30.8107 12.3849C32.8203 10.5411 33.8472 9.23066 33.6374 8.74135C33.5424 8.50404 33.379 8.38434 33.1228 8.39274ZM27.7698 10.6608C27.6064 10.6776 27.2398 10.9464 26.5795 11.4966C25.6255 12.2988 24.5854 12.7608 24.2255 12.555C24.1418 12.573 24.0579 12.5898 23.9737 12.6054C23.6071 12.6747 23.15 12.7314 22.7415 12.6999C22.549 12.6888 22.3603 12.644 22.185 12.5676C22.0196 12.4957 21.8876 12.3687 21.814 12.2106C21.7322 12.0216 21.7322 11.7864 21.825 11.4861L20.3896 12.6075L17.1411 15.1633V19.3066L27.7853 11.3328C27.7832 11.2455 27.7951 11.1584 27.8206 11.0745C27.9023 10.7931 27.8979 10.6503 27.7698 10.6629V10.6608ZM32.3499 12.0027C32.1887 12.0027 31.9193 12.219 31.4887 12.6537C30.9035 13.248 29.9826 13.8234 29.4945 13.941L29.4195 13.9788C29.3393 14.0103 29.2583 14.0397 29.1765 14.067C29.044 14.109 28.8718 14.1594 28.673 14.2098C28.2755 14.3127 27.7809 14.4072 27.3392 14.3967C27.131 14.3965 26.9248 14.358 26.7319 14.2833C26.5501 14.2121 26.4045 14.0766 26.3256 13.9053C26.1975 13.6134 26.2483 13.2039 26.5287 12.6222L17.1389 19.6552V22.1858H21.2641L30.0135 15.6505C30.241 15.4111 30.5832 15.0835 31.0448 14.674C32.2815 13.584 32.5619 13.2081 32.5619 12.6516C32.5619 12.219 32.5111 12.0006 32.3499 12.0006V12.0027ZM34.4324 16.0978L33.6837 16.8076C33.2642 17.1856 32.5155 17.6518 32.0032 17.8513L31.9016 17.8933L31.895 17.9038L31.8729 17.9248C31.853 17.9395 31.8442 17.9416 31.8287 17.9479C31.6242 18.0215 31.4164 18.0867 31.206 18.1432C30.7381 18.2727 30.2568 18.3537 29.7706 18.3847C29.5407 18.3987 29.3099 18.3796 29.086 18.328C28.8917 18.2873 28.7202 18.1796 28.6046 18.0256C28.4986 17.8702 28.4677 17.6623 28.5273 17.4061C28.5747 17.2237 28.6452 17.0474 28.7371 16.8811L21.677 22.1858H31.0669L32.1887 20.9636C33.7301 19.2541 34.4324 18.0319 34.4324 16.9861V16.0978Z" fill="#D9D9D9"/>
</svg>
