<svg width="20" height="20" viewBox="0 0 20 20" fill="none" xmlns="http://www.w3.org/2000/svg">
<path d="M20 9.99997C20 8.68677 19.7413 7.38645 19.2388 6.17308C18.7362 4.95994 17.9997 3.85741 17.0711 2.92895C16.1425 2.00023 15.0401 1.26367 13.8268 0.761228C12.6136 0.258539 11.3132 0 10 0V1.99999C11.0506 1.99999 12.0909 2.20702 13.0615 2.60888C14.0321 3.01098 14.914 3.60033 15.6569 4.34325C16.3997 5.08592 16.989 5.968 17.391 6.93846C17.7931 7.90915 18 8.94947 18 9.99997H20Z" fill="#3E5692"/>
<path d="M0 7.99998V3C0 2.44775 0.447719 2 0.999997 2H5.99998C6.55226 2 6.99998 2.44775 6.99998 3V6.99998C6.99998 7.55223 6.55226 7.99998 5.99998 7.99998H3.99999C3.99999 12.4182 7.58171 16 12 16V14C12 13.4478 12.4477 13 13 13H16.9999C17.5522 13 17.9999 13.4478 17.9999 14V18.9999C17.9999 19.5521 17.5522 19.9999 16.9999 19.9999H12C5.37257 19.9999 0 14.6274 0 7.99998Z" fill="#3E5692"/>
<path d="M15.5433 7.70385C15.8448 8.43189 16 9.21218 16 9.99998H14.2C14.2 9.44848 14.0914 8.90228 13.8803 8.39279C13.6692 7.88305 13.3599 7.42016 12.9698 7.03026C12.5798 6.64013 12.1169 6.3308 11.6073 6.11962C11.0977 5.90868 10.5515 5.80004 10 5.80004V4C10.7879 4 11.5681 4.15527 12.2961 4.45679C13.024 4.7583 13.6855 5.2002 14.2426 5.75731C14.7998 6.31444 15.2418 6.97582 15.5433 7.70385Z" fill="#3E5692"/>
</svg>
