<svg width="33" height="33" viewBox="0 0 33 33" fill="none" xmlns="http://www.w3.org/2000/svg">
<path d="M0.333496 16.1858V32.1858H32.3335V0.185791H0.333496V16.1858ZM26.1215 14.9111C26.9348 15.1138 27.5535 15.4751 28.1228 16.0645C28.4175 16.3791 28.8548 16.9525 28.8895 17.0911C28.9002 17.1311 27.5082 18.0645 26.6655 18.5885C26.6348 18.6085 26.5122 18.4765 26.3762 18.2738C25.9628 17.6738 25.5322 17.4151 24.8722 17.3698C23.9015 17.3031 23.2775 17.8111 23.2828 18.6591C23.274 18.8677 23.3209 19.0748 23.4188 19.2591C23.6322 19.7005 24.0295 19.9658 25.2722 20.5031C27.5642 21.4898 28.5442 22.1391 29.1535 23.0631C29.8335 24.0938 29.9868 25.7405 29.5242 26.9645C29.0175 28.2951 27.7575 29.1991 25.9842 29.4978C25.4362 29.5951 24.1362 29.5805 23.5468 29.4738C22.2615 29.2445 21.0428 28.6098 20.2908 27.7765C19.9962 27.4525 19.4215 26.6031 19.4575 26.5431C19.5499 26.4725 19.648 26.4096 19.7508 26.3551C19.8948 26.2738 20.4322 25.9631 20.9402 25.6685L21.8602 25.1351L22.0535 25.4205C22.3228 25.8311 22.9108 26.3951 23.2668 26.5831C24.2882 27.1218 25.6895 27.0458 26.3802 26.4258C26.5191 26.3088 26.629 26.1613 26.7014 25.9947C26.7738 25.8282 26.8067 25.6472 26.7975 25.4658C26.7975 25.0951 26.7508 24.9325 26.5575 24.6525C26.3095 24.2978 25.8015 23.9991 24.3588 23.3725C22.7082 22.6618 21.9975 22.2205 21.3468 21.5191C20.9407 21.0563 20.6408 20.5102 20.4682 19.9191C20.3468 19.4671 20.3162 18.3338 20.4122 17.8778C20.7522 16.2818 21.9562 15.1711 23.6935 14.8405C24.2575 14.7338 25.5682 14.7738 26.1215 14.9111ZM18.6095 16.2471L18.6202 17.5578H14.4535V29.3925H11.5068V17.5578H7.34416V16.2725C7.34416 15.5605 7.35883 14.9658 7.37883 14.9525C7.39483 14.9311 9.9295 14.9205 13.0015 14.9258L18.5948 14.9418L18.6095 16.2471Z" fill="#D9D9D9"/>
</svg>
