<svg width="50" height="33" viewBox="0 0 50 33" fill="none" xmlns="http://www.w3.org/2000/svg">
<path d="M48.3221 12.3969C47.2187 11.7041 44.6901 11.4442 42.7132 11.7907C42.4833 10.0586 41.4259 8.54303 39.5869 7.20068L38.5295 6.50785L37.7939 7.50379C36.8744 8.80284 36.4147 10.6215 36.5526 12.3536C36.5986 12.9598 36.8284 14.0424 37.518 14.995C36.8744 15.3414 35.5411 15.7744 33.7941 15.7744H0.554526L0.462577 16.1208C0.140756 17.8529 0.140755 23.2656 3.91067 27.4226C6.76109 30.5836 10.9907 32.1858 16.5537 32.1858C28.599 32.1858 37.518 26.9463 41.7017 17.4632C43.3568 17.5065 46.8968 17.4632 48.6899 14.2156C48.7358 14.129 48.8278 13.9558 49.1496 13.3062L49.3335 12.9598L48.3221 12.3969ZM27.1278 0.185791H22.0706V4.51597H27.1278V0.185791ZM27.1278 5.382H22.0706V9.71218H27.1278V5.382ZM21.1511 5.382H16.0939V9.71218H21.1511V5.382ZM15.1744 5.382H10.1172V9.71218H15.1744V5.382ZM9.19774 10.5782H4.14054V14.9084H9.19774V10.5782ZM15.1744 10.5782H10.1172V14.9084H15.1744V10.5782ZM21.1511 10.5782H16.0939V14.9084H21.1511V10.5782ZM27.1278 10.5782H22.0706V14.9084H27.1278V10.5782ZM33.1045 10.5782H28.0473V14.9084H33.1045V10.5782Z" fill="#D9D9D9"/>
</svg>
