<svg width="29" height="33" viewBox="0 0 29 33" fill="none" xmlns="http://www.w3.org/2000/svg">
<path fill-rule="evenodd" clip-rule="evenodd" d="M25.5452 25.5677L10.3641 29.816C10.2584 29.8461 10.1461 29.8499 10.0383 29.8271C9.93044 29.8043 9.83076 29.7557 9.74896 29.6859C9.66715 29.6161 9.60602 29.5276 9.57154 29.4291C9.53705 29.3305 9.53038 29.2252 9.55219 29.1235L14.9765 4.54443C14.9995 4.44403 15.0553 4.35289 15.1363 4.28384C15.2173 4.21478 15.3192 4.17127 15.4279 4.15942C15.5366 4.14756 15.6465 4.16797 15.7421 4.21776C15.8378 4.26755 15.9145 4.34423 15.9613 4.43702L26.0029 24.617C26.0479 24.7067 26.0717 24.8046 26.0725 24.9037C26.0733 25.0029 26.0512 25.1011 26.0077 25.1915C25.9642 25.2818 25.9003 25.3623 25.8204 25.4272C25.7406 25.4922 25.6467 25.5401 25.5452 25.5677ZM28.149 24.5644L16.5249 1.19881C16.382 0.910612 16.1582 0.664406 15.8775 0.486643C15.5967 0.308881 15.2697 0.20628 14.9315 0.189866C14.5932 0.168031 14.2552 0.234247 13.9545 0.38122C13.6538 0.528193 13.4021 0.75022 13.2272 1.02284L0.622014 20.355C0.429727 20.6476 0.329727 20.9854 0.333605 21.3292C0.337483 21.673 0.445081 22.0087 0.643926 22.2975L6.80837 31.3345C7.04066 31.6723 7.38325 31.9303 7.78484 32.0699C8.18643 32.2096 8.62541 32.2234 9.03605 32.1092L26.9305 27.1011C27.2007 27.0272 27.4507 26.8992 27.6632 26.7259C27.8757 26.5526 28.0457 26.3381 28.1614 26.0972C28.2771 25.8564 28.3358 25.5948 28.3334 25.3306C28.3311 25.0664 28.2677 24.8058 28.1478 24.5667L28.149 24.5644Z" fill="#D9D9D9"/>
</svg>
