<svg width="104" height="33" viewBox="0 0 104 33" fill="none" xmlns="http://www.w3.org/2000/svg">
<path d="M94.4484 32.1616C94.1724 32.1616 93.9149 32.0871 93.6757 31.9568L91.2291 30.486C90.8612 30.2812 91.0452 30.2067 91.1555 30.1695C91.6522 30.0019 91.7442 29.9647 92.2593 29.6668C92.3145 29.6296 92.388 29.6482 92.4432 29.6854L94.3196 30.8211C94.3932 30.8584 94.4852 30.8584 94.5403 30.8211L101.88 26.5204C101.954 26.4831 101.991 26.4087 101.991 26.3156V17.7327C101.991 17.6396 101.954 17.5652 101.88 17.5279L94.5403 13.2458C94.4668 13.2086 94.3748 13.2086 94.3196 13.2458L86.9797 17.5279C86.9061 17.5652 86.8693 17.6582 86.8693 17.7327V26.3156C86.8693 26.3901 86.9061 26.4831 86.9797 26.5204L88.9848 27.6933C90.0702 28.2518 90.7508 27.6002 90.7508 26.9486V18.4774C90.7508 18.3657 90.8428 18.254 90.9716 18.254H91.9098C92.0201 18.254 92.1305 18.3471 92.1305 18.4774V26.9486C92.1305 28.4194 91.3395 29.2758 89.9598 29.2758C89.5367 29.2758 89.2056 29.2758 88.2674 28.8104L86.3359 27.6933C85.8576 27.414 85.5632 26.8927 85.5632 26.3342V17.7513C85.5632 17.1928 85.8576 16.6715 86.3359 16.3922L93.6757 12.0915C94.1356 11.8308 94.7611 11.8308 95.221 12.0915L102.561 16.3922C103.039 16.6715 103.333 17.1928 103.333 17.7513V26.3342C103.333 26.8927 103.039 27.414 102.561 27.6933L95.221 31.994C94.9818 32.1058 94.7059 32.1616 94.4484 32.1616ZM96.711 26.2597C93.4918 26.2597 92.8295 24.7703 92.8295 23.5043C92.8295 23.3926 92.9215 23.2809 93.0503 23.2809H94.0069C94.1172 23.2809 94.2092 23.3553 94.2092 23.467C94.3564 24.4538 94.7795 24.9379 96.7294 24.9379C98.2747 24.9379 98.9369 24.5841 98.9369 23.7463C98.9369 23.2622 98.753 22.9085 96.3431 22.6665C94.338 22.4617 93.0871 22.0148 93.0871 20.3951C93.0871 18.887 94.338 17.9934 96.4351 17.9934C98.7897 17.9934 99.9487 18.8126 100.096 20.5999C100.096 20.6557 100.077 20.7116 100.041 20.7674C100.004 20.8047 99.9487 20.8419 99.8935 20.8419H98.9369C98.8449 20.8419 98.753 20.7674 98.7346 20.6743C98.5138 19.6504 97.9435 19.3152 96.4351 19.3152C94.7427 19.3152 94.5403 19.911 94.5403 20.3578C94.5403 20.8978 94.7795 21.0653 97.0605 21.3632C99.3232 21.6611 100.39 22.0893 100.39 23.6905C100.372 25.3288 99.0473 26.2597 96.711 26.2597Z" fill="#D9D9D9"/>
<path d="M17.4759 17.0781C17.4759 16.743 17.292 16.4265 16.9976 16.2589L9.19785 11.7161C9.06908 11.6417 8.92192 11.6044 8.77475 11.5858H8.70117C8.554 11.5858 8.40684 11.6417 8.27807 11.7161L0.478288 16.2589C0.183957 16.4265 0 16.743 0 17.0781L0.0183957 29.2915C0.0183957 29.459 0.110374 29.6266 0.25754 29.7011C0.404705 29.7941 0.588663 29.7941 0.717432 29.7011L5.35315 27.0201C5.64748 26.8525 5.83144 26.536 5.83144 26.2009V20.4852C5.83144 20.1501 6.0154 19.8336 6.30973 19.666L8.27807 18.5117C8.42523 18.4186 8.59079 18.3814 8.75636 18.3814C8.92192 18.3814 9.08748 18.4186 9.21625 18.5117L11.1846 19.666C11.4789 19.8336 11.6629 20.1501 11.6629 20.4852V26.2009C11.6629 26.536 11.8468 26.8525 12.1412 27.0201L16.7769 29.7011C16.924 29.7941 17.108 29.7941 17.2552 29.7011C17.4023 29.6266 17.4943 29.459 17.4943 29.2915L17.4759 17.0781Z" fill="#D9D9D9"/>
<path d="M54.9665 0.266059C54.8194 0.191587 54.6354 0.191587 54.5066 0.266059C54.3595 0.359149 54.2675 0.508092 54.2675 0.675653V12.7773C54.2675 12.889 54.2123 13.0007 54.1019 13.0752C53.9916 13.131 53.8812 13.131 53.7708 13.0752L51.8209 11.9395C51.5265 11.7719 51.177 11.7719 50.8827 11.9395L43.0829 16.5009C42.7886 16.6685 42.6046 16.985 42.6046 17.3201V26.4242C42.6046 26.7594 42.7886 27.0759 43.0829 27.2434L50.8827 31.8048C51.177 31.9724 51.5265 31.9724 51.8209 31.8048L59.6206 27.2434C59.915 27.0759 60.0989 26.7594 60.0989 26.4242V3.72899C60.0989 3.37525 59.915 3.05875 59.6206 2.89119L54.9665 0.266059ZM54.2491 23.4268C54.2491 23.5198 54.2123 23.5943 54.1387 23.6316L51.4713 25.1955C51.3978 25.2327 51.3058 25.2327 51.2322 25.1955L48.5648 23.6316C48.4912 23.5943 48.4544 23.5012 48.4544 23.4268V20.2989C48.4544 20.2059 48.4912 20.1314 48.5648 20.0942L51.2322 18.5302C51.3058 18.493 51.3978 18.493 51.4713 18.5302L54.1387 20.0942C54.2123 20.1314 54.2491 20.2245 54.2491 20.2989V23.4268Z" fill="#D9D9D9"/>
<path d="M80.9229 20.2245C81.2172 20.0569 81.3828 19.7404 81.3828 19.4053V17.1898C81.3828 16.8547 81.1988 16.5382 80.9229 16.3706L73.1783 11.8278C72.884 11.6603 72.5344 11.6603 72.2401 11.8278L64.4403 16.3892C64.146 16.5568 63.962 16.8733 63.962 17.2084V26.3126C63.962 26.6477 64.146 26.9642 64.4403 27.1318L72.1849 31.6001C72.4792 31.7676 72.8288 31.7676 73.1047 31.6001L77.7956 28.9563C77.9428 28.8818 78.0348 28.7143 78.0348 28.5467C78.0348 28.3792 77.9428 28.2116 77.7956 28.1371L69.959 23.5757C69.8119 23.4826 69.7199 23.3337 69.7199 23.1661V20.3176C69.7199 20.15 69.8119 19.9825 69.959 19.908L72.4057 18.493C72.5528 18.3999 72.7368 18.3999 72.884 18.493L75.3306 19.908C75.4777 20.0011 75.5697 20.15 75.5697 20.3176V22.5517C75.5697 22.7193 75.6617 22.8869 75.8089 22.9613C75.956 23.0544 76.14 23.0544 76.2872 22.9613L80.9229 20.2245Z" fill="#D9D9D9"/>
<path d="M72.5892 19.7966C72.6444 19.7594 72.718 19.7594 72.7732 19.7966L74.2632 20.6716C74.3184 20.7089 74.3552 20.7647 74.3552 20.8392V22.5893C74.3552 22.6638 74.3184 22.7196 74.2632 22.7569L72.7732 23.6319C72.718 23.6691 72.6444 23.6691 72.5892 23.6319L71.0992 22.7569C71.044 22.7196 71.0072 22.6638 71.0072 22.5893V20.8392C71.0072 20.7647 71.044 20.7089 71.0992 20.6716L72.5892 19.7966Z" fill="#D9D9D9"/>
<path d="M30.5186 11.8652C30.2243 11.6976 29.8748 11.6976 29.5805 11.8652L21.8359 16.3893C21.5415 16.5569 21.376 16.8734 21.376 17.2085V26.2754C21.376 26.6106 21.5599 26.9271 21.8359 27.0946L29.5805 31.6188C29.8748 31.7864 30.2243 31.7864 30.5186 31.6188L38.2632 27.0946C38.5576 26.9271 38.7231 26.6106 38.7231 26.2754V17.2085C38.7231 16.8734 38.5392 16.5569 38.2632 16.3893L30.5186 11.8652Z" fill="#D9D9D9"/>
<mask id="mask0_2_110" style="mask-type:luminance" maskUnits="userSpaceOnUse" x="21" y="11" width="18" height="21">
<path d="M30.5186 11.8652C30.2243 11.6976 29.8748 11.6976 29.5805 11.8652L21.8359 16.3893C21.5415 16.5569 21.376 16.8734 21.376 17.2085V26.2754C21.376 26.6106 21.5599 26.9271 21.8359 27.0946L29.5805 31.6188C29.8748 31.7864 30.2243 31.7864 30.5186 31.6188L38.2632 27.0946C38.5576 26.9271 38.7231 26.6106 38.7231 26.2754V17.2085C38.7231 16.8734 38.5392 16.5569 38.2632 16.3893L30.5186 11.8652Z" fill="#D9D9D9"/>
</mask>
<g mask="url(#mask0_2_110)">
<path d="M29.5624 11.8652L21.7994 16.3894C21.5051 16.5569 21.3027 16.8734 21.3027 17.2086V26.2755C21.3027 26.4989 21.3947 26.7037 21.5419 26.8713L30.2614 11.7535C30.0407 11.7163 29.7832 11.7349 29.5624 11.8652Z" fill="#D9D9D9"/>
<path d="M30.3167 31.7115C30.3902 31.6929 30.4638 31.6557 30.5374 31.6184L38.3004 27.0943C38.5947 26.9267 38.7787 26.6102 38.7787 26.2751V17.2081C38.7787 16.9661 38.6683 16.7241 38.5027 16.5565L30.3167 31.7115Z" fill="#D9D9D9"/>
<path d="M38.2814 16.3891L30.5 11.8649C30.4264 11.8277 30.3344 11.7905 30.2608 11.7719L21.5413 26.8896C21.6148 26.9827 21.7068 27.0572 21.7988 27.113L29.5802 31.6372C29.8009 31.7675 30.0585 31.8047 30.2976 31.7303L38.4837 16.5753C38.4285 16.5008 38.3549 16.445 38.2814 16.3891Z" fill="#D9D9D9"/>
</g>
<mask id="mask1_2_110" style="mask-type:luminance" maskUnits="userSpaceOnUse" x="21" y="11" width="18" height="21">
<path d="M30.5186 11.8652C30.2243 11.6976 29.8748 11.6976 29.5805 11.8652L21.8359 16.3893C21.5415 16.5569 21.376 16.8734 21.376 17.2085V26.2754C21.376 26.6106 21.5599 26.9271 21.8359 27.0946L29.5805 31.6188C29.8748 31.7864 30.2243 31.7864 30.5186 31.6188L38.2632 27.0946C38.5576 26.9271 38.7231 26.6106 38.7231 26.2754V17.2085C38.7231 16.8734 38.5392 16.5569 38.2632 16.3893L30.5186 11.8652Z" fill="#D9D9D9"/>
</mask>
<g mask="url(#mask1_2_110)">
<path d="M38.7785 26.2756V17.2087C38.7785 16.8736 38.5761 16.5571 38.2818 16.3895L30.5004 11.8654C30.4084 11.8095 30.3164 11.7723 30.2061 11.7537L38.7233 26.4804C38.7601 26.4246 38.7785 26.3501 38.7785 26.2756Z" fill="#D9D9D9"/>
<path d="M21.7993 16.3895C21.505 16.557 21.3026 16.8735 21.3026 17.2087V26.2756C21.3026 26.6107 21.5234 26.9272 21.7993 27.0948L29.5807 31.6189C29.7646 31.7306 29.967 31.7679 30.1877 31.7306L21.8545 16.3708L21.7993 16.3895Z" fill="#D9D9D9"/>
<path fill-rule="evenodd" clip-rule="evenodd" d="M38.2999 27.0946C38.5206 26.9642 38.6862 26.7408 38.7597 26.4988L30.2241 11.7534C30.0034 11.7162 29.7642 11.7348 29.5619 11.8651L21.8357 16.3706L30.1689 31.749C30.2793 31.7304 30.4081 31.6932 30.5185 31.6373L38.2999 27.0946Z" fill="#D9D9D9"/>
<path fill-rule="evenodd" clip-rule="evenodd" d="M38.3 27.0946L30.537 31.6188C30.4266 31.6746 30.3163 31.7119 30.1875 31.7305L30.3347 32.0097L38.9439 26.9643V26.8526L38.7231 26.4802C38.6863 26.7409 38.5208 26.9643 38.3 27.0946Z" fill="#D9D9D9"/>
<path fill-rule="evenodd" clip-rule="evenodd" d="M38.3 27.0946L30.537 31.6188C30.4266 31.6746 30.3163 31.7119 30.1875 31.7305L30.3347 32.0097L38.9439 26.9643V26.8526L38.7231 26.4802C38.6863 26.7409 38.5208 26.9643 38.3 27.0946Z" fill="#D9D9D9"/>
</g>
</svg>
