<svg width="29" height="33" viewBox="0 0 29 33" fill="none" xmlns="http://www.w3.org/2000/svg">
<path d="M26.3686 15.9384C26.3686 14.2742 25.0904 12.9252 23.5135 12.9252C23.4121 12.9252 23.312 12.931 23.2134 12.9419L27.1349 0.735718H10.47L14.386 12.9313C14.3285 12.9276 14.2708 12.9252 14.2125 12.9252C12.6357 12.9252 11.3574 14.2742 11.3574 15.9384C11.3574 17.2835 12.1927 18.4223 13.3455 18.8097C12.7367 19.9229 11.9705 20.9254 11.1006 21.7916C9.91772 22.9692 8.56397 23.8622 7.09976 24.4125C5.35656 23.4674 4.53332 21.3655 5.27616 19.5226C5.35998 19.3145 5.44568 19.1036 5.52747 18.8935C6.79044 18.5825 7.73145 17.3877 7.73145 15.96C7.73145 14.2959 6.45322 12.9469 4.87633 12.9469C3.29951 12.9469 2.0212 14.2959 2.0212 15.96C2.0212 16.9805 2.50235 17.8818 3.23773 18.4269C2.53107 20.1249 1.4923 21.902 1.16868 23.9617C0.780834 26.4301 1.16742 29.0502 3.19031 30.5299C7.90146 33.9759 13.0154 28.3936 18.4073 26.9904C20.3614 26.4818 22.5064 26.5638 24.2281 25.5114C25.5209 24.7211 26.3733 23.4115 26.6152 21.9412C26.8541 20.4886 26.5058 19.0424 25.7045 17.8698C26.119 17.3467 26.3686 16.6735 26.3686 15.9384Z" fill="#D9D9D9"/>
<path d="M25.9281 21.8154C25.7181 23.0919 24.971 24.2069 23.8785 24.8748C22.8601 25.4973 21.6396 25.6831 20.3475 25.8797C19.6553 25.985 18.9395 26.094 18.2403 26.276C16.3914 26.7572 14.6005 27.696 12.8687 28.6038C9.40288 30.4206 6.40976 31.9894 3.58748 29.9252C1.52017 28.413 1.61563 25.6153 1.85648 24.0822C2.07969 22.6618 2.68314 21.3537 3.26672 20.0886C3.36755 19.8699 3.46636 19.6553 3.56252 19.4424C3.85176 19.5644 4.15941 19.6476 4.4801 19.6854C3.88607 21.7544 4.82025 24.0041 6.78108 25.0672L7.0494 25.2127L7.33362 25.1059C8.88374 24.5233 10.3121 23.5884 11.579 22.3269C12.398 21.5115 13.1021 20.6094 13.6808 19.6455C13.8543 19.6731 14.0317 19.6876 14.2124 19.6876C16.012 19.6876 17.5023 18.2678 17.7329 16.434C18.4695 16.4055 19.252 16.4053 19.9929 16.4337C20.2233 18.2676 21.7137 19.6876 23.5134 19.6876C24.2658 19.6876 24.9638 19.4388 25.5388 19.016C25.9381 19.8784 26.0871 20.8488 25.9281 21.8154ZM4.87624 13.6829C6.06613 13.6829 7.03406 14.7045 7.03406 15.9602C7.03406 16.4112 6.90868 16.8318 6.69335 17.186C6.33459 17.7763 5.72507 18.181 5.02449 18.2315C4.97547 18.235 4.9261 18.2375 4.87624 18.2375C4.61113 18.2375 4.3571 18.1864 4.12224 18.0937C3.64717 17.9061 3.25131 17.5464 3.0023 17.087C2.82204 16.7545 2.71842 16.3699 2.71842 15.9602C2.71842 14.7045 3.68643 13.6829 4.87624 13.6829ZM12.0546 15.9385C12.0546 14.7977 12.8537 13.8503 13.8921 13.6865C13.9967 13.67 14.1036 13.6613 14.2124 13.6613C14.9041 13.6613 15.52 14.0072 15.915 14.543C16.0132 14.6762 16.0984 14.8206 16.1669 14.9749C16.2971 15.2678 16.3702 15.5942 16.3702 15.9385C16.3702 16.1206 16.3493 16.2976 16.3109 16.4674C16.1006 17.3965 15.3499 18.1065 14.4301 18.2043C14.3586 18.2118 14.2859 18.2158 14.2124 18.2158C13.7816 18.2158 13.3802 18.0814 13.043 17.8509C12.4489 17.4447 12.0546 16.7395 12.0546 15.9385ZM21.0605 13.2306C20.5983 13.6974 20.2545 14.2938 20.0833 14.9644C19.2843 14.9328 18.437 14.9328 17.6425 14.9644C17.4601 14.2496 17.0816 13.619 16.5725 13.14L18.8052 8.37524L21.0605 13.2306ZM11.4425 1.47182H26.162L22.6855 12.2931C22.5348 12.3313 22.3878 12.3793 22.2451 12.4371L18.8107 5.04326L15.3667 12.3929C15.2178 12.3388 15.0644 12.2953 14.9074 12.2622L11.4425 1.47182ZM25.6712 15.9385C25.6712 16.1669 25.6388 16.3873 25.5794 16.5954C25.4377 17.0905 25.1403 17.5148 24.7477 17.8049C24.3976 18.0635 23.9721 18.2158 23.5134 18.2158C22.5171 18.2158 21.6766 17.4993 21.4295 16.5289C21.3816 16.3405 21.3556 16.1427 21.3556 15.9385C21.3556 15.6273 21.4152 15.3305 21.5228 15.06C21.5782 14.9206 21.6474 14.7889 21.7268 14.6651C22.1151 14.0603 22.7705 13.6613 23.5134 13.6613C23.5815 13.6613 23.6487 13.665 23.7152 13.6716C24.8108 13.7793 25.6712 14.7547 25.6712 15.9385ZM27.0658 15.9385C27.0658 14.1082 25.8162 12.581 24.1704 12.2547L28.1074 0H9.49737L13.4404 12.2797C11.8517 12.6528 10.66 14.1511 10.66 15.9385C10.66 17.2807 11.3321 18.4597 12.3394 19.1222C11.8549 19.884 11.2803 20.6008 10.622 21.2564C9.57776 22.296 8.41452 23.0844 7.16041 23.6031C5.89724 22.7657 5.36324 21.1865 5.91781 19.8108L5.96125 19.7029C5.98845 19.6356 6.01564 19.5681 6.04277 19.5006C7.4302 18.9899 8.42867 17.5963 8.42867 15.9602C8.42867 13.8929 6.83505 12.2111 4.87624 12.2111C2.91744 12.2111 1.32381 13.8929 1.32381 15.9602C1.32381 17.0036 1.7302 17.9485 2.38428 18.6289C2.26573 18.8955 2.14091 19.1667 2.01282 19.4443C1.41481 20.7407 0.737027 22.2099 0.480696 23.8414C-0.0284075 27.0816 0.792811 29.6718 2.79304 31.1349C4.00684 32.0227 5.2394 32.3717 6.47984 32.3717C8.81554 32.3717 11.1782 31.1333 13.4891 29.9219C15.1534 29.0496 16.8743 28.1474 18.5742 27.705C19.2067 27.5404 19.8575 27.4413 20.5466 27.3365C21.913 27.1284 23.3259 26.9134 24.5775 26.1484C26.0282 25.2616 27.0213 23.774 27.3021 22.0672C27.5432 20.6019 27.2531 19.1343 26.5455 17.8897C26.8754 17.321 27.0658 16.6528 27.0658 15.9385Z" fill="#3E5692"/>
</svg>
