<svg width="37" height="33" viewBox="0 0 37 33" fill="none" xmlns="http://www.w3.org/2000/svg">
<path d="M29.9327 10.5576C29.5593 10.4292 29.1723 10.3077 28.7738 10.1927C28.8393 9.92571 28.8994 9.66214 28.9529 9.40305C29.8301 5.14874 29.2566 1.72143 27.298 0.593013C25.4199 -0.488988 22.3485 0.639171 19.2466 3.3362C18.9483 3.59555 18.6492 3.87013 18.3502 4.1579C18.1509 3.9675 17.952 3.78351 17.7536 3.60752C14.5027 0.723677 11.2441 -0.491613 9.28745 0.640067C7.41121 1.72521 6.85557 4.9472 7.64523 8.97905C7.72148 9.36848 7.81061 9.76618 7.91141 10.1705C7.45023 10.3013 7.00501 10.4408 6.57901 10.5891C2.76762 11.9167 0.333496 13.9973 0.333496 16.1555C0.333496 18.3845 2.94653 20.6202 6.91638 21.9758C7.22967 22.0828 7.55474 22.1839 7.88975 22.28C7.78101 22.7173 7.68643 23.1458 7.60703 23.5638C6.8541 27.5257 7.44209 30.6716 9.31334 31.7499C11.2462 32.8634 14.49 31.7188 17.6487 28.9603C17.8983 28.7423 18.1489 28.511 18.3999 28.2686C18.7252 28.5816 19.05 28.8779 19.3731 29.1557C22.4327 31.7861 25.4545 32.8482 27.324 31.7669C29.2549 30.6502 29.8824 27.2708 29.0677 23.1591C29.0055 22.8451 28.9331 22.5243 28.8518 22.1978C29.0796 22.1305 29.3032 22.0611 29.5213 21.9889C33.6483 20.6227 36.3335 18.4142 36.3335 16.1555C36.3335 13.9895 33.8209 11.8948 29.9327 10.5576ZM29.0376 20.5304C28.8407 20.5955 28.6388 20.6585 28.4329 20.7195C27.9773 19.2785 27.3624 17.7461 26.6099 16.163C27.328 14.6175 27.9192 13.1048 28.362 11.6731C28.7303 11.7796 29.0877 11.8919 29.4321 12.0104C32.7635 13.1562 34.7956 14.8502 34.7956 16.1555C34.7956 17.5459 32.601 19.3508 29.0376 20.5304ZM27.559 23.4575C27.9193 25.2756 27.9707 26.9194 27.7321 28.2044C27.5177 29.3591 27.0865 30.1289 26.5534 30.4373C25.4188 31.0933 22.9927 30.2405 20.3761 27.991C20.0761 27.7331 19.774 27.4578 19.4709 27.1663C20.4853 26.058 21.4991 24.7694 22.4885 23.3384C24.2289 23.1841 25.8731 22.9319 27.3642 22.5875C27.4376 22.8835 27.5028 23.1737 27.559 23.4575ZM12.6067 30.3239C11.4983 30.715 10.6154 30.7262 10.0818 30.4188C8.94623 29.7644 8.47416 27.2386 9.11809 23.8504C9.19185 23.4623 9.27964 23.0638 9.38082 22.6563C10.8555 22.9821 12.4877 23.2166 14.2322 23.3579C15.2283 24.7582 16.2714 26.0453 17.3226 27.1723C17.0929 27.3938 16.8642 27.6047 16.6367 27.8034C15.2399 29.0232 13.8402 29.8886 12.6067 30.3239ZM7.41377 20.5219C5.65838 19.9225 4.2087 19.1434 3.21502 18.2933C2.32214 17.5294 1.87134 16.7709 1.87134 16.1555C1.87134 14.8458 3.8257 13.1754 7.08523 12.04C7.48073 11.9022 7.89475 11.7724 8.3244 11.6504C8.77488 13.1144 9.36582 14.6451 10.079 16.1929C9.3566 17.7637 8.75726 19.3187 8.30236 20.7999C7.99606 20.7119 7.69931 20.6193 7.41377 20.5219ZM9.15449 8.68398C8.47794 5.22959 8.92726 2.62373 10.0579 1.96983C11.2623 1.27322 13.9255 2.26643 16.7325 4.75649C16.9119 4.91564 17.092 5.08222 17.2727 5.25456C16.2267 6.37664 15.1932 7.65409 14.2059 9.04614C12.5128 9.20293 10.8921 9.45478 9.40197 9.79204C9.30828 9.41554 9.2253 9.04563 9.15449 8.68398ZM24.6833 12.5149C24.327 11.9002 23.9613 11.3 23.5885 10.7162C24.7372 10.8612 25.8377 11.0538 26.8711 11.2895C26.5609 12.2829 26.1741 13.3217 25.7189 14.3865C25.3924 13.7671 25.047 13.1426 24.6833 12.5149ZM18.3507 6.35263C19.06 7.12042 19.7704 7.97765 20.4691 8.90773C19.765 8.87451 19.0522 8.85722 18.3335 8.85722C17.6216 8.85722 16.914 8.87412 16.2143 8.90677C16.9137 7.98533 17.6302 7.12926 18.3507 6.35263ZM11.9775 12.5255C11.6217 13.1419 11.2827 13.7631 10.9613 14.3853C10.5134 13.3242 10.1303 12.2808 9.81733 11.2732C10.8445 11.0436 11.9398 10.8558 13.0811 10.7135C12.703 11.3027 12.3343 11.9074 11.9775 12.5255ZM13.114 21.7071C11.9348 21.5757 10.823 21.3976 9.79612 21.1743C10.1141 20.1487 10.5057 19.083 10.963 17.999C11.2853 18.6208 11.6256 19.2422 11.9836 19.86C12.3483 20.4894 12.7262 21.1059 13.114 21.7071ZM18.3932 26.0667C17.6643 25.281 16.9373 24.4118 16.2272 23.4769C16.9165 23.504 17.6193 23.5178 18.3335 23.5178C19.0673 23.5178 19.7927 23.5013 20.5066 23.4695C19.8056 24.4212 19.0978 25.2917 18.3932 26.0667ZM25.7336 17.9438C26.2148 19.0395 26.6204 20.0996 26.9425 21.1077C25.8987 21.3456 24.7717 21.5372 23.5843 21.6796C23.958 21.0879 24.3269 20.4774 24.6894 19.8494C25.0561 19.2141 25.4044 18.5778 25.7336 17.9438ZM23.3573 19.0818C22.7945 20.0567 22.2168 20.9873 21.6303 21.8657C20.562 21.942 19.4583 21.9813 18.3335 21.9813C17.2132 21.9813 16.1235 21.9465 15.0741 21.8785C14.4639 20.9886 13.8736 20.0552 13.3145 19.0902C12.7568 18.1279 12.2436 17.1574 11.7785 16.1924C12.2435 15.2251 12.7554 14.2535 13.3099 13.2929L13.3098 13.2931C13.8657 12.3299 14.4509 11.4011 15.0554 10.5167C16.126 10.4359 17.2239 10.3937 18.3334 10.3937C19.448 10.3937 20.5473 10.4362 21.6176 10.5178C22.2129 11.3957 22.7941 12.3215 23.3522 13.2848C23.9167 14.2589 24.4352 15.224 24.9041 16.1705C24.4366 17.1333 23.9192 18.1082 23.3573 19.0818ZM26.5298 1.92412C27.7353 2.61867 28.2041 5.4198 27.4467 9.09294C27.3984 9.32732 27.344 9.56605 27.2849 9.80798C25.7913 9.46368 24.1695 9.20747 22.4714 9.04832C21.4822 7.64097 20.4572 6.36153 19.4282 5.25386C19.7049 4.98798 19.9811 4.73446 20.2562 4.49522C22.914 2.18442 25.398 1.27207 26.5298 1.92412ZM18.3335 12.9438C20.1089 12.9438 21.5482 14.3817 21.5482 16.1555C21.5482 17.9292 20.1089 19.3672 18.3335 19.3672C16.5581 19.3672 15.1188 17.9292 15.1188 16.1555C15.1188 14.3817 16.5581 12.9438 18.3335 12.9438Z" fill="#D9D9D9"/>
</svg>
