<svg width="36" height="33" viewBox="0 0 36 33" fill="none" xmlns="http://www.w3.org/2000/svg">
<path d="M0.333496 0.185791H35.3335V32.1858H0.333496V0.185791ZM32.4679 24.5558C32.2119 23.0918 31.1685 21.8678 28.0874 20.7228C27.0166 20.2648 25.8201 19.9418 25.4668 19.2018C25.3355 18.7638 25.3126 18.5248 25.3979 18.2638C25.6199 17.3988 26.7312 17.1438 27.6083 17.3838C28.1782 17.5448 28.7021 17.9408 29.0324 18.5818C30.5418 17.6808 30.5418 17.6808 31.5907 17.0818C31.198 16.5248 31.0044 16.2798 30.7365 16.0458C29.8188 15.1028 28.5949 14.6238 26.6065 14.6658L25.5751 14.7858C24.5896 15.0048 23.6501 15.4838 23.0802 16.1248C21.4221 17.8438 21.9012 20.8438 23.9115 22.0888C25.8999 23.4478 28.8104 23.7448 29.1866 25.0268C29.5344 26.5898 27.9168 27.0898 26.3155 26.9068C25.1365 26.6668 24.4813 26.1258 23.7572 25.1258L21.0907 26.5268C21.3926 27.1678 21.7458 27.4438 22.2697 28.0058C24.8051 30.3448 31.151 30.2248 32.2896 26.6668C32.329 26.5468 32.6374 25.7238 32.3979 24.4688L32.4679 24.5558ZM19.3658 14.8938H16.0901C16.0901 17.4768 16.0726 20.0448 16.0726 22.6338C16.0726 24.2748 16.1633 25.7848 15.8735 26.2488C15.389 27.1658 14.153 27.0508 13.5887 26.8898C13.0133 26.6298 12.7169 26.2698 12.3812 25.7488C12.2838 25.6078 12.216 25.4888 12.193 25.4888L9.53303 26.9888C9.97709 27.8278 10.6268 28.5518 11.4646 29.0098C12.7126 29.6918 14.3871 29.9108 16.1415 29.5518C17.2812 29.2498 18.2666 28.6298 18.7785 27.6718C19.5244 26.4318 19.3647 24.9118 19.3593 23.2078C19.3768 20.4678 19.3593 17.7288 19.3593 14.9678L19.3658 14.8938Z" fill="#D9D9D9"/>
</svg>
