<svg width="90" height="84" viewBox="0 0 90 84" fill="none" xmlns="http://www.w3.org/2000/svg">
<path d="M9.4623 8.8161L0.549056 45.8699C0.218142 47.244 0.157607 48.6707 0.370916 50.0685C0.584224 51.4664 1.0672 52.8079 1.79223 54.0165C2.51727 55.2251 3.47016 56.277 4.59647 57.1123C5.72277 57.9475 7.00043 58.5496 8.35642 58.8843L52.686 69.8371C53.8256 82.5205 64.1825 83.4583 68.2686 83.8928C68.3088 83.8951 68.3487 83.8838 68.3819 83.8607C68.4152 83.8377 68.44 83.8041 68.4524 83.7652C68.4649 83.7264 68.4643 83.6845 68.4508 83.646C68.4372 83.6075 68.4116 83.5747 68.3777 83.5525C65.4435 81.7398 64.5675 76.7705 64.3718 72.7246L67.6627 73.5376C69.0185 73.873 70.4263 73.9344 71.8055 73.7182C73.1847 73.502 74.5084 73.0125 75.7009 72.2777C76.8934 71.5429 77.9314 70.5771 78.7555 69.4356C79.5796 68.2941 80.1737 66.9992 80.5039 65.625L89.417 28.5712C89.7479 27.1971 89.8085 25.7704 89.5952 24.3726C89.3819 22.9747 88.8989 21.6332 88.1739 20.4246C87.4489 19.216 86.496 18.1641 85.3697 17.3288C84.2434 16.4936 82.9658 15.8914 81.6098 15.5568L22.3035 0.903426C20.9477 0.568027 19.5399 0.506659 18.1607 0.722836C16.7815 0.939012 15.4578 1.4285 14.2653 2.16331C13.0728 2.89813 12.0348 3.86389 11.2107 5.0054C10.3866 6.14691 9.79247 7.4418 9.4623 8.8161V8.8161Z" fill="#A2BDFF"/>
<path d="M82.9957 27.0956L58.2077 20.971C58.0444 20.9307 57.8798 21.0321 57.8401 21.1975L56.5684 26.4841C56.5286 26.6495 56.6287 26.8163 56.7919 26.8567L81.58 32.9813C81.7432 33.0216 81.9078 32.9202 81.9476 32.7547L83.2193 27.4682C83.2591 27.3028 83.159 27.136 82.9957 27.0956Z" fill="white"/>
<path d="M79.4563 41.8099L12.2946 25.2155C12.1314 25.1752 11.9668 25.2766 11.927 25.4421L10.6553 30.7286C10.6155 30.894 10.7156 31.0609 10.8788 31.1012L78.0405 47.6955C78.2037 47.7359 78.3683 47.6344 78.4081 47.469L79.6798 42.1825C79.7196 42.017 79.6195 41.8502 79.4563 41.8099Z" fill="#D4E5FF"/>
<path d="M75.9161 56.5243L8.75456 39.93C8.59132 39.8896 8.42672 39.9911 8.38693 40.1565L7.11527 45.443C7.07547 45.6085 7.17554 45.7753 7.33878 45.8156L74.5003 62.41C74.6636 62.4503 74.8282 62.3489 74.868 62.1834L76.1396 56.8969C76.1794 56.7314 76.0794 56.5646 75.9161 56.5243Z" fill="#D4E5FF"/>
</svg>
