<svg width="119" height="113" viewBox="0 0 119 113" fill="none" xmlns="http://www.w3.org/2000/svg">
<path d="M103.421 10.3669L117.997 57.8043C118.538 59.5634 118.732 61.4133 118.567 63.2483C118.402 65.0833 117.882 66.8675 117.037 68.4988C116.192 70.1302 115.038 71.5768 113.641 72.756C112.244 73.9351 110.631 74.8238 108.895 75.3711L52.1442 93.2814C51.685 109.866 38.2954 111.942 33.018 112.845C32.9657 112.852 32.9125 112.841 32.8669 112.814C32.8214 112.787 32.7861 112.745 32.7666 112.696C32.7472 112.646 32.7447 112.591 32.7596 112.54C32.7744 112.488 32.8058 112.443 32.8487 112.412C36.5173 109.812 37.2557 103.279 37.184 98.0025L32.9704 99.3322C31.2348 99.8804 29.4096 100.077 27.5991 99.9098C25.7886 99.7429 24.0283 99.2161 22.4187 98.3596C20.8092 97.503 19.3819 96.3334 18.2184 94.9177C17.055 93.5019 16.1781 91.8678 15.638 90.1085L1.06254 42.6711C0.521514 40.912 0.327776 39.0621 0.492401 37.227C0.657025 35.392 1.17678 33.6079 2.02197 31.9765C2.86717 30.3451 4.02124 28.8985 5.41825 27.7194C6.81525 26.5402 8.42781 25.6515 10.1638 25.1041L86.0881 1.14293C87.8238 0.594603 89.6491 0.398253 91.4597 0.565097C93.2703 0.731942 95.0307 1.25871 96.6404 2.1153C98.25 2.97189 99.6774 4.14153 100.841 5.55738C102.004 6.97322 102.881 8.60753 103.421 10.3669V10.3669Z" fill="#3E5692"/>
<path d="M49.8006 27.3569L9.14308 40.1718C8.98262 40.2223 8.89299 40.3952 8.9429 40.5578L11.0749 47.5056C11.1248 47.6682 11.2953 47.759 11.4558 47.7085L52.1133 34.8937C52.2738 34.8431 52.3634 34.6702 52.3135 34.5076L50.1815 27.5598C50.1316 27.3972 49.9611 27.3064 49.8006 27.3569Z" fill="white"/>
<path d="M101.109 31.7604L14.9526 58.9521C14.7922 59.0027 14.7026 59.1756 14.7526 59.3382L16.8869 66.2843C16.9368 66.4469 17.1074 66.5377 17.2678 66.4871L103.425 39.2954C103.585 39.2447 103.674 39.0719 103.625 38.9093L101.49 31.9631C101.44 31.8005 101.27 31.7098 101.109 31.7604Z" fill="#D4E5FF"/>
<path d="M106.888 50.6944L20.7114 77.8564C20.551 77.907 20.4614 78.0798 20.5113 78.2425L22.6432 85.1902C22.6931 85.3529 22.8637 85.4437 23.0241 85.3931L109.201 58.2311C109.362 58.1806 109.451 58.0077 109.401 57.8451L107.269 50.8973C107.219 50.7347 107.049 50.6439 106.888 50.6944Z" fill="#D4E5FF"/>
</svg>
