<svg width="342" height="433" viewBox="0 0 342 433" fill="none" xmlns="http://www.w3.org/2000/svg">
<path d="M128.335 111.745C128.107 111.724 127.876 111.749 127.657 111.819C127.437 111.889 127.234 112.001 127.057 112.151C126.881 112.3 126.736 112.483 126.629 112.69C126.523 112.896 126.457 113.122 126.437 113.354C125.888 119.622 126.376 125.247 128.289 130.025C130.201 134.803 133.587 138.686 138.498 141.264C138.702 141.372 138.925 141.437 139.154 141.457C139.383 141.476 139.614 141.45 139.833 141.38C140.052 141.309 140.255 141.196 140.431 141.045C140.606 140.895 140.751 140.711 140.857 140.504C141.07 140.087 141.111 139.601 140.971 139.153C140.83 138.705 140.52 138.332 140.109 138.115C135.869 135.889 133.161 132.762 131.533 128.693C129.904 124.624 129.407 119.562 129.923 113.669C129.944 113.437 129.919 113.203 129.85 112.981C129.781 112.758 129.67 112.552 129.523 112.373C129.375 112.195 129.194 112.047 128.991 111.939C128.787 111.831 128.564 111.765 128.335 111.745Z" fill="#3E5692"/>
<path d="M101.415 149.447C101.186 149.424 100.955 149.446 100.735 149.513C100.515 149.58 100.31 149.69 100.132 149.837C99.9534 149.984 99.8054 150.166 99.6962 150.371C99.587 150.576 99.5188 150.801 99.4954 151.032C99.472 151.264 99.4939 151.499 99.5599 151.722C99.6258 151.945 99.7345 152.153 99.8798 152.333C106.298 160.316 115.007 162.515 124.446 160.594C124.671 160.548 124.886 160.458 125.077 160.328C125.267 160.198 125.431 160.031 125.559 159.837C125.686 159.643 125.774 159.426 125.819 159.198C125.863 158.969 125.863 158.734 125.817 158.505C125.772 158.277 125.683 158.06 125.555 157.867C125.427 157.673 125.262 157.507 125.071 157.378C124.88 157.249 124.665 157.159 124.44 157.114C124.214 157.069 123.982 157.07 123.757 157.116C115.171 158.863 108.269 157.15 102.595 150.093C102.449 149.912 102.271 149.762 102.068 149.651C101.866 149.54 101.644 149.471 101.415 149.447Z" fill="#3E5692"/>
<path d="M107.046 95.99C98.7925 95.99 92.292 103.608 92.292 112.707C92.292 121.805 98.7926 129.421 107.046 129.421C115.299 129.421 121.8 121.805 121.8 112.707C121.8 103.608 115.299 95.99 107.046 95.99ZM107.046 99.5194C113.165 99.5194 118.315 105.291 118.315 112.707C118.315 120.122 113.165 125.892 107.046 125.892C100.927 125.892 95.7764 120.122 95.7764 112.707C95.7763 105.291 100.927 99.5194 107.046 99.5194Z" fill="#3E5692"/>
<path d="M142.063 93.5889C139.131 93.5889 136.795 95.8317 135.263 98.8325C133.731 101.833 132.851 105.787 132.851 110.139C132.851 114.492 133.731 118.447 135.263 121.448C136.795 124.449 139.131 126.692 142.063 126.692C144.996 126.692 147.33 124.449 148.862 121.448C150.394 118.447 151.274 114.492 151.274 110.139C151.274 105.787 150.394 101.833 148.862 98.8325C147.33 95.8317 144.996 93.5889 142.063 93.5889ZM142.063 96.7897C143.346 96.7897 144.827 97.8928 146.058 100.303C147.288 102.714 148.116 106.234 148.116 110.139C148.116 114.044 147.288 117.565 146.058 119.975C144.827 122.385 143.346 123.489 142.063 123.489C140.781 123.489 139.298 122.385 138.067 119.975C136.837 117.565 136.009 114.044 136.009 110.139C136.009 106.234 136.837 102.714 138.067 100.303C139.298 97.8928 140.781 96.7897 142.063 96.7897Z" fill="#3E5692"/>
<path d="M127.053 102.142C124.04 102.467 121.1 103.946 118.207 106.261C117.843 106.553 117.609 106.979 117.555 107.446C117.501 107.913 117.632 108.383 117.92 108.751C118.207 109.12 118.628 109.358 119.088 109.413C119.549 109.468 120.013 109.336 120.377 109.044C122.929 107.002 125.293 105.899 127.422 105.669C129.551 105.44 131.519 105.994 133.629 107.639C133.811 107.781 134.019 107.885 134.241 107.946C134.463 108.007 134.695 108.023 134.923 107.992C135.151 107.962 135.371 107.887 135.57 107.77C135.769 107.654 135.944 107.499 136.084 107.314C136.367 106.942 136.492 106.47 136.432 106.004C136.371 105.538 136.131 105.115 135.764 104.828C133.077 102.734 130.065 101.817 127.053 102.142Z" fill="#3E5692"/>
<path d="M102.261 83.252C95.9928 84.1576 91.238 87.6565 87.4131 92.0111C87.2604 92.1852 87.143 92.3879 87.0676 92.6079C86.9922 92.828 86.9603 93.0611 86.9737 93.2936C86.9871 93.5261 87.0456 93.7535 87.1458 93.9631C87.246 94.1727 87.386 94.3604 87.5577 94.5152C87.7294 94.67 87.9295 94.7891 88.1466 94.8655C88.3637 94.9419 88.5936 94.9741 88.823 94.9605C89.0524 94.9469 89.2769 94.8877 89.4838 94.7861C89.6906 94.6845 89.8756 94.5427 90.0284 94.3687C94.7206 89.0265 99.9306 85.5912 108.581 86.7893C108.809 86.8208 109.041 86.8065 109.263 86.7472C109.485 86.688 109.694 86.5849 109.877 86.4439C110.06 86.3029 110.214 86.1268 110.329 85.9255C110.445 85.7243 110.521 85.5019 110.552 85.271C110.583 85.0402 110.569 84.8055 110.51 84.5802C110.452 84.3549 110.35 84.1434 110.211 83.9579C110.072 83.7724 109.898 83.6166 109.7 83.4992C109.501 83.3818 109.282 83.3052 109.054 83.2738C106.606 82.9347 104.35 82.9506 102.261 83.252Z" fill="#3E5692"/>
<path d="M138.158 84.6022C136.796 84.6377 135.405 84.8388 134.001 85.198C133.552 85.3133 133.165 85.605 132.928 86.0088C132.69 86.4127 132.62 86.8957 132.734 87.3517C132.848 87.8076 133.135 88.199 133.534 88.4399C133.932 88.6808 134.409 88.7515 134.859 88.6363C139.619 87.4177 143.388 88.189 146.828 91.5323C146.994 91.6935 147.189 91.8199 147.403 91.9044C147.618 91.989 147.846 92.0299 148.076 92.0249C148.306 92.02 148.532 91.9692 148.743 91.8755C148.953 91.7817 149.143 91.6468 149.302 91.4786C149.461 91.3104 149.586 91.1122 149.67 90.8952C149.753 90.6781 149.793 90.4464 149.789 90.2135C149.784 89.9806 149.733 89.751 149.641 89.5377C149.549 89.3245 149.416 89.1318 149.25 88.9706C146.074 85.8836 142.243 84.4969 138.158 84.6022Z" fill="#3E5692"/>
<path d="M151.26 129.231C151.03 129.221 150.8 129.256 150.584 129.335C150.368 129.415 150.169 129.536 149.999 129.693C149.83 129.851 149.692 130.04 149.595 130.251C149.497 130.463 149.442 130.691 149.431 130.924C148.022 162.389 135.494 180.557 119.293 186.683C103.091 192.81 82.6908 187.013 65.072 168.967C64.7455 168.633 64.3013 168.444 63.8372 168.442C63.3732 168.439 62.9272 168.624 62.5974 168.955C62.2675 169.286 62.0807 169.736 62.0782 170.206C62.0756 170.676 62.2574 171.129 62.5837 171.463C80.8929 190.216 102.74 196.729 120.517 190.007C138.295 183.284 151.478 163.448 152.927 131.084C152.949 130.614 152.785 130.155 152.472 129.807C152.159 129.46 151.723 129.253 151.26 129.231Z" fill="#3E5692"/>
<path d="M115.644 0.090635C102.186 0.830988 88.1175 6.55736 76.726 21.6035C75.3337 20.8628 72.6038 19.5441 67.644 18.5076C61.0265 17.1246 51.4951 16.6889 39.8315 20.3485H39.8295C35.0281 21.8603 27.6581 26.4564 20.9056 34.5691C14.1532 42.6818 8.14268 54.332 6.63023 69.754C6.31319 72.9811 4.48791 82.3766 6.17711 94.3608C7.86631 106.345 13.0884 121.128 26.6224 135.742C30.9236 140.374 41.5334 147.085 53.7162 148.432H53.7182C55.1555 148.589 56.8598 148.373 57.978 146.928C58.537 146.205 58.7978 145.21 58.7221 144.236C58.6464 143.261 58.2958 142.282 57.7045 141.217C56.8247 139.635 55.5348 136.37 54.5268 133.592C54.0228 132.203 53.5769 130.922 53.2553 129.984C53.0945 129.514 52.9655 129.131 52.8725 128.859C52.826 128.723 52.7888 128.616 52.7592 128.532C52.7444 128.49 52.7322 128.456 52.7162 128.414C52.7082 128.392 52.7015 128.37 52.683 128.326C52.674 128.304 52.6617 128.28 52.6342 128.224C52.6204 128.195 52.604 128.16 52.5678 128.099C52.541 128.054 52.4408 127.93 52.3744 127.847C52.3227 127.814 51.5151 127.297 51.5151 127.297C51.5151 127.297 51.2471 127.247 51.1752 127.241C51.0314 127.231 50.9779 127.241 50.9311 127.241C50.8375 127.252 50.8043 127.255 50.7709 127.26C50.7042 127.27 50.6629 127.278 50.6127 127.287C50.5123 127.305 50.3918 127.33 50.2358 127.358C49.9237 127.415 49.4786 127.491 48.9272 127.564C47.8243 127.709 46.2955 127.836 44.6166 127.758C41.2588 127.601 37.4287 126.638 34.8334 123.561C33.1615 121.582 31.4296 117.92 31.2748 114.612C31.1201 111.304 32.121 108.467 36.2748 106.641C40.6878 104.705 44.3247 105.466 47.2221 107.185C50.1195 108.905 52.1526 111.782 52.6967 113.47C53.6974 116.571 54.9649 120.751 56.4155 124.407C57.1407 126.235 57.9083 127.933 58.7572 129.347C59.6053 130.76 60.4764 131.957 61.8783 132.61H61.8804H61.8823C64.9139 134.021 68.1455 133.215 70.1772 131.085C72.2099 128.955 73.2761 125.733 73.2202 122.122C73.1945 120.461 72.5778 118.698 71.728 116.574C70.8782 114.45 69.7523 112.057 68.5562 109.634C66.1639 104.789 63.475 99.782 62.3139 97.0781C60.9744 93.952 57.9808 88.5293 58.9194 81.7491C59.8331 75.149 64.634 67.0308 79.4937 58.7061C82.0895 61.4112 96.096 75.1329 119.708 80.0131C126.217 81.3587 136.053 82.4458 146.419 79.9401C156.785 77.4343 167.675 71.2501 175.914 58.3204C177.63 55.6272 180.414 49.6844 179.918 41.9205C179.421 34.1566 175.519 24.7218 164.296 15.5203C162.335 13.9142 157.936 11.0379 151.777 8.11317C145.618 5.18845 137.759 2.27295 129.111 0.858421C124.787 0.15121 120.253 -0.167146 115.644 0.0864287L115.644 0.090635ZM115.861 3.58044C120.173 3.36963 124.437 3.69135 128.552 4.36431C136.782 5.71032 144.359 8.51169 150.29 11.3281C156.221 14.1439 160.566 17.0317 162.095 18.2839C172.727 27.0008 175.99 35.3791 176.423 42.1563C176.857 48.9334 174.337 54.2595 172.972 56.4006C165.215 68.575 155.26 74.1626 145.607 76.4961C135.953 78.8297 126.596 77.8231 120.408 76.5439C95.4308 71.3817 81.0209 55.2804 81.0209 55.2804C80.7591 54.9874 80.4081 54.7915 80.0238 54.7237C79.6396 54.6559 79.244 54.7202 78.8998 54.9063C62.4695 63.7859 56.5727 73.1853 55.4545 81.2629C54.3363 89.3405 57.9715 95.8575 59.103 98.4981H59.105C60.4159 101.551 63.0726 106.461 65.4253 111.226C66.6016 113.609 67.6976 115.943 68.4858 117.913C69.274 119.883 69.7109 121.579 69.7202 122.182C69.7643 125.028 68.8557 127.374 67.6616 128.626C66.4675 129.877 65.2215 130.266 63.3432 129.39H63.3392C63.139 129.296 62.4311 128.644 61.7474 127.505C61.0637 126.367 60.3456 124.809 59.6615 123.085C58.2933 119.637 57.0401 115.523 56.0228 112.37C55.11 109.538 52.6632 106.308 48.9896 104.128C45.316 101.948 40.2922 101.016 34.8841 103.387H34.8821C29.5589 105.727 27.5751 110.432 27.7786 114.781C27.9821 119.129 29.9517 123.237 32.1731 125.868C35.6308 129.967 40.5582 131.121 44.4563 131.304C46.4054 131.395 48.1289 131.248 49.3782 131.084C49.5991 131.055 49.712 131.03 49.9017 131.001C49.9217 131.06 49.9294 131.086 49.9505 131.147C50.2758 132.097 50.7268 133.399 51.2415 134.817C52.271 137.654 53.5114 140.902 54.6556 142.959C55.0753 143.716 55.2133 144.252 55.2337 144.515C55.2541 144.778 55.2204 144.743 55.2237 144.739C55.2307 144.728 54.7845 144.979 54.0948 144.905C42.9876 143.677 32.5877 136.989 29.1729 133.311C16.1357 119.233 11.2459 105.24 9.64165 93.8583C8.03736 82.4765 9.73734 73.9194 10.1123 70.1027C11.5519 55.4241 17.2311 44.4828 23.5811 36.8534C29.9304 29.2251 37.0733 24.9283 40.8663 23.7335C51.9426 20.2582 60.826 20.7005 66.9385 21.9779C73.0511 23.2553 76.253 25.2994 76.253 25.2994C76.6279 25.5359 77.0773 25.62 77.5108 25.5348C77.9444 25.4496 78.3303 25.2014 78.5909 24.84C89.5657 9.64341 102.924 4.20904 115.86 3.57673L115.861 3.58044Z" fill="#3E5692"/>
<path fill-rule="evenodd" clip-rule="evenodd" d="M79.7239 56.4716C79.7239 56.4716 94.5099 73.0016 120.058 78.2819C132.755 80.9068 158.448 82.4677 174.443 57.3636C177.524 52.5293 185.051 34.8236 163.196 16.9051C156.215 11.1891 107.21 -17.7865 77.1789 23.7969C77.1789 23.7969 63.0889 14.9085 40.3489 22.0435C31.7549 24.7495 11.3229 39.8302 8.37092 69.9307C7.67892 76.9745 1.3259 105.839 27.8979 134.53C31.7559 138.686 42.2609 145.385 53.9059 146.672C56.0349 146.905 58.2049 145.74 56.1799 142.091C54.1559 138.453 51.1179 129.068 51.0679 129.017C51.0169 128.956 39.5569 131.895 33.5039 124.72C29.6099 120.109 26.1019 109.183 35.5789 105.018C45.3999 100.71 52.9029 108.403 54.3599 112.923C56.3779 119.176 59.4019 129.514 62.6109 131.004C67.5219 133.294 71.5699 128.612 71.4699 122.156C71.3999 117.625 63.1809 103.548 60.7089 97.7915C58.2379 92.0248 47.4499 73.9137 79.7239 56.4716Z" fill="#3E5692"/>
<path d="M59.6794 102.203C59.4527 102.165 59.2206 102.172 58.9966 102.224C58.7726 102.277 58.5609 102.373 58.3737 102.509C58.1865 102.644 58.0275 102.815 57.9057 103.013C57.7838 103.21 57.7017 103.43 57.6638 103.66C57.6257 103.89 57.6327 104.125 57.6844 104.352C57.7361 104.579 57.8314 104.794 57.9649 104.984C58.0984 105.173 58.2674 105.334 58.4624 105.458C58.6574 105.581 58.8745 105.665 59.1013 105.703L93.9821 111.622C94.4398 111.699 94.909 111.589 95.2866 111.316C95.6642 111.043 95.9193 110.629 95.9958 110.165C96.0721 109.701 95.9635 109.225 95.6939 108.843C95.4244 108.46 95.0159 108.202 94.5583 108.124L59.6794 102.203Z" fill="#3E5692"/>
<path d="M61.5755 197.44C61.3473 197.468 61.1269 197.542 60.9268 197.657C60.7268 197.771 60.551 197.925 60.4095 198.109C60.1239 198.479 59.9949 198.949 60.0509 199.415C60.1069 199.882 60.3434 200.307 60.7083 200.597C80.1455 216.021 97.118 222.347 109.281 222.102C115.362 221.979 120.311 220.175 123.548 216.825C126.785 213.474 128.121 208.644 127.288 203.186C127.217 202.721 126.967 202.305 126.593 202.027C126.218 201.749 125.751 201.634 125.292 201.705C124.834 201.777 124.422 202.03 124.147 202.41C123.873 202.789 123.759 203.263 123.829 203.728C124.533 208.345 123.472 211.834 121.048 214.342C118.625 216.851 114.651 218.445 109.212 218.555C98.3354 218.773 81.8853 212.896 62.8665 197.804C62.6855 197.66 62.4783 197.554 62.2568 197.492C62.0353 197.429 61.8038 197.411 61.5755 197.44Z" fill="#3E5692"/>
<path d="M58.2846 188.603C53.5127 192.539 51.511 197.752 50.8549 202.331C50.1987 206.91 50.8155 210.875 51.3178 212.866C53.189 220.283 59.6035 226.109 66.3647 230.56C73.1258 235.011 80.3537 238.073 84.351 239.543C97.0096 244.203 106.316 244.036 113.046 241.774C119.777 239.511 123.824 235.19 126.113 232.009C130.126 226.436 131.58 219.173 132.128 213.299C132.677 207.425 132.271 202.844 132.271 202.844C132.251 202.612 132.185 202.386 132.079 202.18C131.972 201.973 131.827 201.79 131.651 201.64C131.474 201.491 131.271 201.378 131.051 201.309C130.832 201.239 130.601 201.214 130.372 201.234C130.143 201.255 129.921 201.321 129.717 201.429C129.513 201.537 129.332 201.685 129.185 201.864C129.037 202.043 128.926 202.249 128.857 202.472C128.789 202.694 128.764 202.928 128.785 203.16C128.785 203.16 129.162 207.426 128.644 212.967C128.126 218.507 126.664 225.226 123.285 229.919C121.256 232.738 117.816 236.433 111.945 238.407C106.074 240.381 97.6646 240.671 85.5443 236.21C81.7446 234.812 74.6875 231.811 68.2709 227.587C61.8544 223.363 56.1992 217.899 54.7084 211.989C54.3207 210.453 53.7504 206.803 54.3178 202.844C54.8851 198.884 56.5154 194.638 60.4936 191.357C60.672 191.21 60.8202 191.029 60.9295 190.824C61.0389 190.619 61.1073 190.394 61.1309 190.162C61.1545 189.93 61.1327 189.696 61.0669 189.473C61.0011 189.249 60.8926 189.041 60.7475 188.861C60.6023 188.68 60.4235 188.53 60.2212 188.419C60.0188 188.309 59.7969 188.24 59.5682 188.216C59.3395 188.192 59.1084 188.214 58.8882 188.281C58.6679 188.348 58.4628 188.458 58.2846 188.605V188.603Z" fill="#3E5692"/>
<path d="M53.013 214.499C16.3174 251.197 2.66977 282.979 0.401712 323.759C-0.645548 342.584 0.487009 359.23 2.27476 372.169C4.06253 385.109 6.45996 394.258 8.13023 398.449C13.7282 412.506 22.8402 420.308 32.6498 424.712C42.4597 429.117 52.9389 430.241 61.5638 431.367C61.5645 431.367 61.5652 431.367 61.5658 431.367C79.373 433.682 100.376 428.576 100.376 428.576C100.727 428.492 101.043 428.3 101.283 428.027C101.522 427.754 101.672 427.413 101.712 427.05C105.236 395.4 121.259 380.162 121.259 380.162C121.477 379.954 121.639 379.693 121.728 379.403C121.818 379.113 121.833 378.805 121.771 378.508C121.71 378.21 121.574 377.934 121.377 377.705C121.18 377.477 120.928 377.303 120.646 377.201C84.913 364.301 44.0385 375.281 44.0385 375.281C43.8161 375.34 43.6073 375.443 43.4241 375.584C43.2409 375.724 43.0869 375.9 42.9708 376.101C42.8547 376.302 42.7789 376.525 42.7476 376.755C42.7163 376.986 42.7302 377.221 42.7885 377.447C42.8467 377.672 42.9481 377.884 43.087 378.069C43.2258 378.255 43.3995 378.411 43.5979 378.529C43.7963 378.646 44.0156 378.723 44.2434 378.755C44.4711 378.787 44.7028 378.772 44.9252 378.713C44.9252 378.713 83.1917 368.714 116.947 379.741C112.868 384.4 101.716 399.213 98.4584 425.318C96.7392 425.713 78.0677 429.935 62.0111 427.848C53.3301 426.714 43.2298 425.584 34.0678 421.47C24.9057 417.356 16.6545 410.376 11.3764 397.12C9.94465 393.528 7.50035 384.408 5.74162 371.678C3.9829 358.949 2.86317 342.523 3.89591 323.959C6.12585 283.864 19.1818 253.318 55.4721 217.025C55.8023 216.694 55.9894 216.244 55.9923 215.774C55.9952 215.303 55.8137 214.851 55.4876 214.517C55.1619 214.182 54.7181 213.991 54.2541 213.988C53.79 213.985 53.3436 214.169 53.013 214.499Z" fill="#3E5692"/>
<path d="M60.5405 267.944C60.0868 268.042 59.6901 268.319 59.4374 268.713C59.1847 269.107 59.0967 269.587 59.1928 270.046C68.7198 315.577 68.3048 355.306 67.9135 367.581C67.4348 367.135 67.0357 366.619 66.5034 366.231C64.242 364.58 61.5368 363.356 58.9194 362.414C53.6847 360.532 48.7221 359.798 48.7221 359.798C48.2632 359.729 47.7962 359.848 47.4237 360.128C47.0513 360.408 46.8038 360.827 46.7358 361.292C46.702 361.522 46.7134 361.757 46.7692 361.983C46.825 362.209 46.9242 362.422 47.0612 362.609C47.1981 362.796 47.3701 362.954 47.5673 363.074C47.7645 363.194 47.983 363.273 48.2104 363.307C48.2104 363.307 52.9022 364.015 57.7495 365.758C60.1731 366.629 62.615 367.764 64.4565 369.109C66.298 370.454 67.4629 371.938 67.7729 373.513C67.8551 373.937 68.0872 374.317 68.4257 374.579C68.7643 374.842 69.1858 374.971 69.6113 374.941C70.0367 374.911 70.4368 374.725 70.7363 374.417C71.0358 374.109 71.2141 373.701 71.2378 373.27C71.2378 373.27 74.0988 324.185 62.6167 269.31C62.5688 269.082 62.4772 268.866 62.347 268.674C62.2168 268.482 62.0505 268.318 61.8577 268.191C61.6649 268.065 61.4494 267.978 61.2233 267.935C60.9973 267.893 60.7653 267.896 60.5405 267.944Z" fill="#3E5692"/>
<path d="M140.775 260.733C140.553 260.795 140.346 260.901 140.165 261.045C139.984 261.188 139.832 261.366 139.719 261.569C139.606 261.772 139.533 261.995 139.505 262.226C139.477 262.457 139.494 262.692 139.556 262.916C149.005 297.537 151.822 333.076 151.851 369.073C151.851 369.544 152.036 369.995 152.365 370.327C152.693 370.659 153.139 370.845 153.603 370.845C154.067 370.844 154.512 370.657 154.84 370.324C155.167 369.991 155.351 369.54 155.351 369.069C155.322 332.886 152.494 297.017 142.929 261.97C142.868 261.746 142.763 261.535 142.622 261.352C142.481 261.168 142.305 261.014 142.105 260.899C141.905 260.784 141.684 260.71 141.456 260.682C141.228 260.653 140.996 260.671 140.775 260.733Z" fill="#3E5692"/>
<path d="M130.827 216.605C130.467 216.308 130.006 216.169 129.544 216.217C129.083 216.265 128.659 216.497 128.366 216.862C128.074 217.227 127.936 217.695 127.984 218.162C128.031 218.63 128.26 219.06 128.62 219.356C128.62 219.356 132.054 222.167 136.55 228.757C141.046 235.347 146.499 245.627 150.214 260.339C154.452 277.124 159.31 299.335 166.306 369.251C166.329 369.483 166.397 369.708 166.506 369.913C166.615 370.118 166.763 370.3 166.941 370.447C167.119 370.594 167.324 370.704 167.544 370.771C167.764 370.838 167.995 370.861 168.224 370.837C168.452 370.814 168.674 370.745 168.877 370.634C169.079 370.524 169.258 370.374 169.403 370.193C169.549 370.013 169.657 369.805 169.723 369.582C169.789 369.359 169.811 369.125 169.788 368.893C162.784 298.888 157.867 276.342 153.605 259.458C149.783 244.323 144.141 233.645 139.429 226.738C134.717 219.831 130.827 216.605 130.827 216.605Z" fill="#3E5692"/>
<path d="M287.698 323.463C285.947 323.148 284.303 323.707 282.993 324.553C281.684 325.399 280.621 326.533 279.741 327.657C278.942 328.678 278.939 328.905 278.464 329.732C277.772 328.875 277.043 328.173 276.232 327.712C274.771 326.883 273.066 326.85 271.706 327.416C268.987 328.548 267.338 331.321 266.294 334.104C265.416 336.446 264.065 341.03 263.837 346.302C263.609 351.574 264.524 357.606 268.458 362.428C268.459 362.428 268.459 362.428 268.46 362.428C272.018 366.78 276.965 367.366 280.872 365.485C284.779 363.604 287.889 359.687 289.363 355.243C291.696 348.195 292.879 340.91 292.845 335.11C292.828 332.21 292.521 329.684 291.798 327.647C291.076 325.612 289.757 323.828 287.698 323.461L287.698 323.463ZM287.087 326.954C287.088 326.954 287.09 326.954 287.091 326.954C287.485 327.024 287.999 327.425 288.505 328.851C289.011 330.276 289.329 332.489 289.345 335.132C289.376 340.416 288.258 347.431 286.044 354.117C284.86 357.688 282.172 360.933 279.37 362.282C276.568 363.631 273.895 363.517 271.156 360.166C267.971 356.262 267.131 351.194 267.335 346.456C267.54 341.718 268.81 337.382 269.566 335.365C270.4 333.141 271.969 331.142 273.036 330.698C273.57 330.475 273.901 330.455 274.521 330.806C275.14 331.158 276.035 332.05 276.974 333.813C277.128 334.103 277.358 334.343 277.64 334.508C277.921 334.672 278.241 334.754 278.566 334.744C278.89 334.734 279.205 334.633 279.477 334.453C279.748 334.272 279.964 334.018 280.101 333.72C280.101 333.72 281.032 331.716 282.484 329.862C283.21 328.935 284.059 328.071 284.874 327.544C285.69 327.017 286.383 326.828 287.087 326.954Z" fill="#3E5692"/>
<path d="M282.308 315.077C282.093 314.994 281.864 314.955 281.634 314.961C281.405 314.968 281.178 315.02 280.968 315.116C280.758 315.211 280.569 315.347 280.411 315.516C280.253 315.686 280.13 315.885 280.048 316.103C280.048 316.103 276.485 325.281 276.767 333.037C276.784 333.507 276.985 333.951 277.325 334.271C277.665 334.591 278.116 334.761 278.579 334.743C279.043 334.726 279.481 334.522 279.796 334.178C280.112 333.834 280.28 333.376 280.263 332.906C280.027 326.413 283.32 317.368 283.32 317.368C283.402 317.15 283.441 316.918 283.434 316.685C283.428 316.452 283.376 316.223 283.282 316.01C283.188 315.797 283.054 315.606 282.887 315.446C282.719 315.286 282.523 315.16 282.308 315.077Z" fill="#3E5692"/>
<path d="M339.732 256.909L238.543 286.807C238.268 286.888 238.017 287.037 237.812 287.239C237.607 287.442 237.454 287.692 237.367 287.969L194.181 424.708C194.105 424.949 194.08 425.204 194.109 425.456C194.138 425.708 194.22 425.95 194.349 426.167C194.349 426.167 195.735 428.483 198.545 430.193C201.355 431.903 205.749 433.03 211.347 431.082H211.349C221.673 427.481 285.499 405.118 290.592 403.387C293.029 402.57 295.236 402.379 297.34 400.642C299.446 398.903 300.905 395.972 302.404 390.307C303.795 385.046 313.335 354.227 322.459 324.993C331.583 295.758 340.342 267.907 340.342 267.907C340.411 267.685 340.437 267.451 340.418 267.219C340.399 266.987 340.335 266.76 340.229 266.553C340.123 266.346 339.979 266.163 339.803 266.012C339.627 265.862 339.424 265.748 339.205 265.678C338.763 265.535 338.283 265.577 337.871 265.793C337.459 266.009 337.148 266.382 337.008 266.83C337.008 266.83 328.248 294.685 319.123 323.924C309.998 353.163 300.558 383.583 299.023 389.389C297.596 394.781 296.325 396.903 295.129 397.89C293.932 398.878 292.264 399.088 289.484 400.022C289.482 400.022 289.48 400.022 289.478 400.022C284.129 401.839 220.515 424.13 210.211 427.725C205.496 429.364 202.425 428.413 200.347 427.149C198.912 426.276 198.201 425.453 197.791 424.91L240.416 289.946L340.711 260.313C340.931 260.248 341.137 260.14 341.317 259.994C341.496 259.849 341.645 259.668 341.756 259.464C341.867 259.26 341.936 259.035 341.961 258.804C341.987 258.572 341.966 258.338 341.902 258.114C341.838 257.891 341.731 257.682 341.587 257.5C341.443 257.318 341.265 257.167 341.064 257.055C340.862 256.943 340.641 256.872 340.413 256.847C340.184 256.821 339.953 256.842 339.732 256.907L339.732 256.909Z" fill="#3E5692"/>
<path d="M145.092 390.844C144.874 390.769 144.644 390.738 144.414 390.754C144.185 390.769 143.961 390.831 143.755 390.934C143.549 391.037 143.365 391.181 143.213 391.356C143.062 391.531 142.946 391.735 142.873 391.956C142.799 392.177 142.769 392.41 142.784 392.642C142.8 392.875 142.86 393.102 142.962 393.311C143.064 393.52 143.205 393.706 143.378 393.86C143.551 394.013 143.753 394.13 143.97 394.205C143.97 394.205 146.757 395.159 149.814 396.279C151.343 396.839 152.939 397.441 154.273 397.978C155.607 398.514 156.742 399.036 157.058 399.227H157.062C157.698 399.607 158.478 400.572 158.98 401.792C159.483 403.012 159.715 404.449 159.597 405.569C159.462 406.856 159.372 408.424 159.094 409.773C158.815 411.121 158.32 412.099 157.877 412.43C157.49 412.713 157.014 412.768 156.931 412.738C156.849 412.708 156.521 412.658 156.4 411.147C156.246 409.226 156.042 406.883 155.168 404.66C154.293 402.437 152.582 400.294 149.793 399.351H149.791C146.905 398.378 143.933 397.81 141.992 397.506C141.988 397.506 141.984 397.506 141.98 397.506C140.062 397.218 138.154 398.153 137.183 399.852L137.201 399.823C135.615 402.475 131.908 407.63 126.687 410.059C121.466 412.487 114.732 412.629 105.662 404.728C105.488 404.576 105.286 404.46 105.067 404.387C104.849 404.314 104.618 404.286 104.389 404.303C104.16 404.321 103.936 404.384 103.731 404.489C103.526 404.594 103.343 404.739 103.193 404.916C103.043 405.093 102.929 405.297 102.857 405.519C102.785 405.74 102.757 405.974 102.774 406.206C102.792 406.438 102.854 406.665 102.958 406.873C103.061 407.081 103.204 407.266 103.379 407.418C113.156 415.935 121.832 416.219 128.148 413.281C134.464 410.343 138.421 404.624 140.193 401.662C140.199 401.651 140.205 401.641 140.211 401.63C140.468 401.18 140.959 400.94 141.467 401.017C143.285 401.301 146.106 401.849 148.685 402.719C150.453 403.316 151.297 404.404 151.916 405.977C152.535 407.55 152.762 409.567 152.912 411.436C153.095 413.724 154.156 415.504 155.756 416.082C157.356 416.66 158.853 416.099 159.937 415.3C159.939 415.3 159.941 415.3 159.943 415.3C161.575 414.089 162.165 412.222 162.52 410.506C162.874 408.79 162.96 407.074 163.078 405.949C163.273 404.09 162.924 402.163 162.211 400.431C161.498 398.7 160.428 397.129 158.846 396.181C158.051 395.702 156.955 395.244 155.564 394.684C154.174 394.125 152.553 393.514 151.004 392.946C147.906 391.811 145.092 390.846 145.092 390.846L145.092 390.844Z" fill="#3E5692"/>
<path d="M150.302 386.417C150.087 386.334 149.859 386.295 149.629 386.301C149.399 386.307 149.173 386.36 148.963 386.455C148.753 386.55 148.564 386.686 148.406 386.855C148.248 387.024 148.124 387.223 148.042 387.441C147.96 387.658 147.921 387.89 147.927 388.123C147.934 388.356 147.985 388.585 148.079 388.798C148.173 389.011 148.307 389.202 148.474 389.363C148.641 389.523 148.837 389.648 149.052 389.731C150.054 390.119 153.33 391.408 156.511 392.706C158.102 393.355 159.672 394.007 160.919 394.549C162.167 395.091 163.23 395.627 163.249 395.64C164.11 396.197 164.852 396.561 165.542 397.34C166.232 398.119 166.919 399.315 167.253 401.683C167.606 404.188 167.623 406.609 167.341 408.19C167.2 408.98 166.968 409.546 166.825 409.757C166.695 409.951 166.833 409.829 166.898 409.809C166.005 409.792 165.469 409.669 164.894 409.124C164.314 408.575 163.605 407.381 163.081 404.938C162.983 404.478 162.708 404.077 162.317 403.823C161.927 403.568 161.453 403.482 160.999 403.582C160.546 403.682 160.151 403.96 159.9 404.355C159.649 404.75 159.563 405.23 159.661 405.69C160.271 408.536 161.18 410.46 162.505 411.715C163.83 412.97 165.485 413.336 166.849 413.36C166.852 413.36 166.854 413.36 166.857 413.36C168.046 413.376 169.135 412.62 169.716 411.757C170.298 410.894 170.59 409.91 170.785 408.819C171.175 406.637 171.11 403.965 170.718 401.18C170.307 398.268 169.311 396.281 168.146 394.967C166.981 393.653 165.696 393.014 165.132 392.649C164.439 392.2 163.587 391.847 162.298 391.287C161.01 390.727 159.422 390.069 157.818 389.415C154.609 388.105 151.341 386.818 150.302 386.415L150.302 386.417Z" fill="#3E5692"/>
<path d="M156.874 382.401C156.437 382.243 155.956 382.267 155.537 382.469C155.117 382.67 154.794 383.031 154.638 383.474C154.56 383.693 154.526 383.926 154.537 384.159C154.548 384.392 154.605 384.62 154.703 384.831C154.801 385.041 154.94 385.23 155.11 385.387C155.281 385.543 155.48 385.664 155.696 385.743C156.541 386.048 159.134 386.971 161.798 388.181C164.462 389.391 167.215 391.08 167.925 391.98C170.228 394.899 172.023 397.868 172.614 400.84C172.947 402.51 173.352 404.858 173.429 406.687C173.466 407.579 173.405 408.332 173.312 408.722C172.754 408.788 172.247 408.822 171.923 408.697C171.514 408.538 171.095 408.231 170.567 407.391C170.444 407.194 170.284 407.024 170.096 406.89C169.907 406.756 169.695 406.662 169.471 406.611C169.246 406.561 169.014 406.555 168.788 406.596C168.562 406.636 168.345 406.721 168.151 406.846C167.957 406.971 167.79 407.133 167.658 407.324C167.526 407.515 167.432 407.73 167.382 407.958C167.333 408.185 167.327 408.42 167.367 408.649C167.407 408.879 167.491 409.098 167.614 409.295C168.423 410.583 169.456 411.536 170.669 412.008C171.882 412.48 173.146 412.448 174.341 412.213C175.024 412.078 175.638 411.639 176.007 411.157C176.376 410.676 176.564 410.172 176.692 409.675C176.95 408.679 176.971 407.642 176.925 406.537C176.832 404.328 176.394 401.883 176.046 400.138C175.278 396.278 173.122 392.885 170.659 389.763C168.986 387.643 166.06 386.229 163.23 384.943C160.399 383.658 157.681 382.692 156.874 382.4V382.401Z" fill="#3E5692"/>
<path d="M142.181 376.289C134.474 376.027 119.933 377.104 119.933 377.104C119.704 377.121 119.48 377.183 119.274 377.287C119.069 377.392 118.886 377.536 118.735 377.712C118.584 377.888 118.47 378.093 118.397 378.314C118.324 378.535 118.296 378.768 118.312 379.001C118.346 379.47 118.562 379.906 118.912 380.214C119.263 380.521 119.72 380.675 120.183 380.641C120.183 380.641 134.835 379.589 142.062 379.834C149.791 380.107 157.433 378.78 164.808 383.476C172.706 388.505 176.141 391.079 179.224 402.392C179.777 404.419 179.769 405.651 179.662 406.086C179.554 406.52 179.72 406.27 179.519 406.309C179.118 406.387 177.137 405.777 175.871 405.232C175.659 405.141 175.432 405.093 175.202 405.091C174.972 405.089 174.744 405.133 174.531 405.221C174.318 405.308 174.124 405.437 173.96 405.6C173.796 405.764 173.666 405.958 173.576 406.173C173.395 406.606 173.391 407.093 173.565 407.529C173.739 407.965 174.077 408.313 174.504 408.497C175.664 408.996 177.732 410.27 180.179 409.793C181.403 409.555 182.694 408.419 183.058 406.947C183.422 405.474 183.232 403.778 182.597 401.448C179.355 389.551 174.69 385.578 166.67 380.471C158.129 375.033 149.386 376.543 142.183 376.289C142.183 376.289 142.182 376.289 142.181 376.289Z" fill="#3E5692"/>
<path d="M116.34 411.092C115.886 411.191 115.49 411.468 115.238 411.864C110.4 419.479 106.412 422.739 103.818 424.111C102.521 424.797 101.569 425.019 100.986 425.09C100.403 425.161 100.357 425.12 100.357 425.12C99.9045 425.016 99.4298 425.099 99.0376 425.351C98.6453 425.602 98.3675 426.001 98.2655 426.46C98.1635 426.919 98.2455 427.4 98.4934 427.797C98.7414 428.195 99.135 428.477 99.5877 428.58C99.5877 428.58 100.399 428.735 101.406 428.611C102.414 428.488 103.788 428.128 105.437 427.255C108.736 425.511 113.116 421.756 118.181 413.783C118.433 413.388 118.518 412.908 118.42 412.448C118.322 411.989 118.048 411.587 117.658 411.332C117.465 411.206 117.249 411.12 117.023 411.079C116.796 411.037 116.564 411.042 116.34 411.092Z" fill="#3E5692"/>
<path fill-rule="evenodd" clip-rule="evenodd" d="M104.519 406.074C107.036 408.263 109.43 409.875 111.697 411.01C107.412 417.8 100.736 421.317 100.736 421.317C101.671 415.662 102.996 410.584 104.519 406.074Z" fill="#3E5692"/>
<path d="M197.538 418.085L116.521 418.54C116.056 418.543 115.612 418.732 115.286 419.067C114.96 419.401 114.778 419.853 114.78 420.324C114.782 420.557 114.828 420.787 114.917 421.002C115.006 421.216 115.136 421.411 115.3 421.575C115.463 421.739 115.657 421.868 115.87 421.956C116.082 422.044 116.31 422.089 116.54 422.088L197.558 421.632C198.022 421.63 198.466 421.44 198.792 421.106C199.119 420.771 199.3 420.319 199.298 419.849C199.297 419.616 199.25 419.385 199.161 419.171C199.072 418.956 198.942 418.761 198.778 418.597C198.615 418.434 198.421 418.304 198.209 418.216C197.996 418.128 197.768 418.084 197.538 418.085Z" fill="#3E5692"/>
<path d="M110.026 426.434C109.796 426.433 109.568 426.477 109.355 426.564C109.142 426.652 108.948 426.781 108.784 426.945C108.62 427.109 108.49 427.303 108.401 427.518C108.311 427.733 108.264 427.963 108.263 428.196C108.26 428.666 108.441 429.118 108.766 429.453C109.092 429.788 109.535 429.978 109.999 429.982L199.819 430.672C200.049 430.674 200.277 430.63 200.491 430.543C200.704 430.455 200.898 430.326 201.062 430.162C201.225 429.999 201.356 429.804 201.445 429.589C201.535 429.374 201.582 429.144 201.583 428.911C201.586 428.441 201.405 427.989 201.079 427.654C200.754 427.319 200.311 427.129 199.847 427.125L110.026 426.434Z" fill="#3E5692"/>
<path d="M183.533 375.083C183.09 375.225 182.721 375.539 182.507 375.956C182.293 376.373 182.252 376.86 182.392 377.308C182.532 377.757 182.842 378.13 183.253 378.347C184.342 378.921 188.339 381.528 189.179 385.74C189.684 388.273 190.373 391.814 190.812 394.989C191.032 396.576 191.187 398.073 191.23 399.268C191.273 400.464 191.128 401.413 191.083 401.531C190.791 402.295 190.375 402.494 190.308 402.53C190.264 402.483 190.187 402.424 190.08 402.087C189.658 400.756 188.457 396.848 187.138 393.084C186.478 391.202 185.79 389.353 185.132 387.835C184.803 387.076 184.484 386.401 184.16 385.822C183.835 385.242 183.573 384.767 182.996 384.286C182.637 383.987 182.177 383.844 181.715 383.89C181.253 383.935 180.828 384.164 180.533 384.527C180.238 384.89 180.097 385.357 180.142 385.825C180.187 386.293 180.413 386.724 180.771 387.023C180.637 386.911 180.883 387.158 181.115 387.571C181.346 387.985 181.628 388.572 181.927 389.262C182.525 390.641 183.197 392.435 183.841 394.272C185.129 397.946 186.309 401.785 186.748 403.172C187.044 404.107 187.531 404.917 188.261 405.474C188.992 406.03 189.957 406.251 190.806 406.111C192.505 405.832 193.701 404.5 194.347 402.813C194.783 401.674 194.778 400.533 194.728 399.139C194.678 397.746 194.508 396.155 194.279 394.496C193.819 391.176 193.116 387.583 192.609 385.038C191.423 379.095 186.51 376.065 184.867 375.2C184.455 374.983 183.975 374.941 183.533 375.083Z" fill="#3E5692"/>
<path d="M191.634 375.344C191.449 375.482 191.292 375.656 191.172 375.855C191.053 376.054 190.973 376.275 190.938 376.505C190.903 376.736 190.914 376.971 190.968 377.197C191.023 377.423 191.121 377.637 191.257 377.825C191.675 378.402 192.111 378.794 192.751 379.485C193.391 380.177 194.159 381.034 194.896 381.995C196.369 383.917 197.638 386.25 197.724 388.203C197.836 390.755 197.871 393.716 197.687 396.099C197.595 397.291 197.444 398.341 197.253 399.068C197.063 399.795 196.74 400.117 196.937 399.969C196.325 400.43 195.801 400.608 195.382 400.62C194.962 400.632 194.574 400.526 194.032 400.06C193.857 399.909 193.655 399.795 193.436 399.723C193.217 399.652 192.986 399.625 192.757 399.644C192.528 399.663 192.305 399.727 192.101 399.834C191.896 399.94 191.714 400.086 191.566 400.264C191.417 400.441 191.304 400.647 191.234 400.869C191.163 401.09 191.137 401.324 191.155 401.556C191.174 401.788 191.238 402.015 191.343 402.222C191.448 402.429 191.592 402.613 191.767 402.764C192.85 403.696 194.175 404.204 195.478 404.167C196.78 404.131 197.986 403.6 199.027 402.815C199.027 402.815 199.028 402.815 199.029 402.815C200.051 402.044 200.357 401.045 200.636 399.979C200.915 398.912 201.075 397.697 201.177 396.376C201.381 393.735 201.337 390.683 201.222 388.047C201.08 384.81 199.337 382.006 197.659 379.818C196.821 378.724 195.977 377.785 195.304 377.059C194.631 376.331 194.05 375.684 194.079 375.724C193.805 375.345 193.393 375.093 192.934 375.021C192.476 374.95 192.008 375.066 191.634 375.344Z" fill="#3E5692"/>
<path d="M204.199 398.282C203.746 398.18 203.272 398.264 202.88 398.516C202.538 398.737 201.537 398.914 200.642 398.872C199.747 398.831 199.052 398.67 199.052 398.67C198.6 398.565 198.125 398.646 197.732 398.895C197.338 399.145 197.059 399.542 196.955 400.001C196.851 400.459 196.93 400.94 197.177 401.339C197.423 401.738 197.815 402.021 198.267 402.126C198.267 402.126 199.25 402.358 200.482 402.415C201.714 402.473 203.291 402.456 204.757 401.511C204.952 401.386 205.119 401.223 205.252 401.033C205.384 400.842 205.477 400.627 205.528 400.4C205.578 400.172 205.583 399.937 205.543 399.708C205.504 399.478 205.42 399.259 205.296 399.062C205.173 398.866 205.013 398.695 204.824 398.561C204.636 398.428 204.423 398.333 204.199 398.282Z" fill="#3E5692"/>
<path d="M199.591 375.736C199.363 375.769 199.144 375.846 198.946 375.964C198.748 376.083 198.575 376.239 198.437 376.425C198.157 376.801 198.036 377.273 198.1 377.739C198.164 378.205 198.408 378.626 198.778 378.909C198.778 378.909 199.752 379.62 201.065 381.734C202.379 383.848 203.901 387.259 204.558 392.407C204.617 392.873 204.857 393.296 205.225 393.583C205.592 393.87 206.057 393.998 206.517 393.938C206.977 393.877 207.395 393.634 207.678 393.262C207.962 392.89 208.088 392.419 208.028 391.952C207.308 386.307 205.599 382.374 204.026 379.844C202.454 377.313 200.888 376.079 200.888 376.079C200.704 375.938 200.495 375.835 200.273 375.777C200.05 375.718 199.819 375.704 199.591 375.736Z" fill="#3E5692"/>
<path d="M189.16 368.751C184.915 368.846 181.994 369.512 179.66 370.427C177.167 371.404 174.372 373.344 172.074 375.059C169.775 376.775 168.023 378.278 168.023 378.278C167.847 378.428 167.703 378.612 167.598 378.819C167.492 379.027 167.428 379.253 167.409 379.485C167.39 379.717 167.417 379.951 167.487 380.172C167.557 380.394 167.669 380.6 167.818 380.778C168.118 381.136 168.546 381.36 169.008 381.399C169.47 381.438 169.929 381.289 170.283 380.986C170.283 380.986 171.953 379.555 174.15 377.916C176.347 376.276 179.121 374.442 180.921 373.737C184.837 372.202 191.035 371.311 205.988 373.99C206.214 374.031 206.446 374.026 206.671 373.976C206.895 373.926 207.108 373.831 207.296 373.698C207.485 373.564 207.645 373.395 207.769 373.198C207.893 373.002 207.977 372.783 208.017 372.553C208.057 372.324 208.052 372.088 208.003 371.861C207.953 371.633 207.86 371.417 207.728 371.226C207.596 371.035 207.428 370.873 207.234 370.747C207.04 370.622 206.824 370.537 206.597 370.497C198.972 369.13 193.404 368.655 189.16 368.751Z" fill="#3E5692"/>
</svg>
