<svg width="78" height="28" viewBox="0 0 78 28" fill="none" xmlns="http://www.w3.org/2000/svg">
<path d="M4.86964 18.9454L0 13.644L4.86964 8.34258H10.0271L5.13351 13.644L10.0271 18.9454H4.86964Z" fill="#3E5692"/>
<path d="M29.8648 16.4304L35.1662 11.5608L40.5263 16.2252V21.644L35.1662 16.6943L29.8648 21.5879V16.4304Z" fill="#F1F1F1"/>
<path d="M40.5263 16.2721L45.8277 11.4024L51.1292 16.2721V21.4296L45.8277 16.5359L40.5263 21.644V16.2721Z" fill="#3E5692"/>
<path d="M24.2222 13.4281C25.1977 13.636 25.9813 14.1238 26.573 14.8914C27.1648 15.643 27.4606 16.5066 27.4606 17.4821C27.4606 18.8895 26.9649 20.0089 25.9733 20.8405C24.9978 21.6561 23.6305 22.0639 21.8713 22.0639H14.0271V5.22408H21.6075C23.3186 5.22408 24.654 5.61589 25.6135 6.39951C26.589 7.18313 27.0768 8.24662 27.0768 9.58997C27.0768 10.5815 26.8129 11.4051 26.2852 12.0608C25.7734 12.7165 25.0858 13.1722 24.2222 13.4281ZM18.1291 12.0368H20.8158C21.4875 12.0368 21.9993 11.8928 22.3511 11.605C22.7189 11.3011 22.9028 10.8613 22.9028 10.2856C22.9028 9.70991 22.7189 9.27012 22.3511 8.96627C21.9993 8.66242 21.4875 8.51049 20.8158 8.51049H18.1291V12.0368ZM21.1517 18.7535C21.8393 18.7535 22.3671 18.6016 22.7349 18.2977C23.1187 17.9779 23.3106 17.5221 23.3106 16.9304C23.3106 16.3387 23.1107 15.8749 22.7109 15.5391C22.3271 15.2032 21.7914 15.0353 21.1037 15.0353H18.1291V18.7535H21.1517Z" fill="#F1F1F1"/>
<path d="M65.5212 0L59.0892 27.288H55.1292L61.5612 0H65.5212Z" fill="#F1F1F1"/>
<path d="M67.2762 9.096H72.4362L77.3082 14.4L72.4362 19.704H67.2762L72.1722 14.4L67.2762 9.096Z" fill="#F1F1F1"/>
</svg>
